<svg width="114" height="114" viewBox="0 0 114 114" fill="none" xmlns="http://www.w3.org/2000/svg">
<g clip-path="url(#clip0)">
<path d="M5.69746 91.1988H12.6994C14.8926 95.8395 19.5658 98.7991 24.6983 98.7991C29.8317 98.7991 34.504 95.8395 36.6972 91.1988H77.3022C79.4955 95.8395 84.1687 98.7991 89.3012 98.7991C94.4345 98.7991 99.1068 95.8395 101.3 91.1988H108.302C111.075 91.2043 113.447 89.2087 113.918 86.4755C114.387 83.7432 112.817 81.0693 110.202 80.148V77.8982C110.192 68.4581 102.541 60.8086 93.1013 60.7974H93.0271C92.2728 48.6139 84.743 37.8842 73.542 33.0319C73.914 31.5484 74.1023 30.025 74.1005 28.496C74.1005 21.0385 69.9209 15.1954 64.6001 15.1954C63.65 15.1954 60.8797 15.2093 52.5269 22.8412C49.6777 20.2481 45.3218 20.2481 42.4717 22.8412C35.0031 16.0183 32.0027 15.1954 30.3986 15.1954C25.0787 15.1954 20.8981 21.0385 20.8981 28.496C20.6439 33.0579 22.5691 37.4685 26.0872 40.3836C20.6968 46.0226 17.5312 53.4244 17.1778 61.2177C9.36774 62.9675 3.81129 69.8943 3.79738 77.8982V80.148C1.18198 81.0693 -0.387818 83.7432 0.0825638 86.4755C0.552018 89.2087 2.92434 91.2043 5.69746 91.1988V91.1988ZM89.3012 94.9989C84.0546 94.9989 79.8007 90.746 79.8007 85.4985C79.8007 80.252 84.0546 75.9981 89.3012 75.9981C94.5487 75.9981 98.8016 80.252 98.8016 85.4985C98.796 90.7432 94.5459 94.9934 89.3012 94.9989ZM110.202 85.4985C110.202 86.5478 109.351 87.3986 108.302 87.3986H102.45C102.653 86.1405 102.653 84.8574 102.45 83.5984H108.302C109.351 83.5984 110.202 84.4492 110.202 85.4985ZM60.7999 26.5959H54.8297C54.8167 26.543 54.7963 26.492 54.7805 26.4382C54.7406 26.3018 54.722 26.1608 54.6719 26.0263C62.0524 19.1988 64.3533 18.9956 64.6001 18.9956C67.6896 18.9956 70.3003 23.3468 70.3003 28.496C70.3003 33.6451 67.6896 37.9964 64.6001 37.9964C64.3533 37.9964 62.0524 37.7932 54.6719 30.9667C54.722 30.8312 54.7406 30.6911 54.7805 30.5538C54.7963 30.5009 54.8167 30.4499 54.8297 30.3961H60.7999C61.8492 30.3961 62.7 29.5453 62.7 28.496C62.7 27.4467 61.8492 26.5959 60.7999 26.5959ZM53.1996 34.7668C61.0263 41.7873 63.6825 41.7966 64.6001 41.7966C67.9048 41.6082 70.8291 39.595 72.1837 36.5751C81.9253 40.8558 88.4921 50.1827 89.2371 60.7974H53.1996V34.7668ZM53.1996 64.5976H93.1013C100.444 64.6059 106.394 70.5558 106.402 77.8982V79.7983H101.3C99.1068 75.1585 94.4345 72.1989 89.3012 72.1989C84.1687 72.1989 79.4955 75.1585 77.3022 79.7983H53.1996V64.5976ZM53.1996 83.5984H76.1527C75.9505 84.8574 75.9505 86.1405 76.1527 87.3986H53.1996V83.5984ZM49.3994 87.3986H45.5992V36.0963H49.3994V87.3986ZM47.4993 24.6958C48.8205 24.6986 50.0442 25.3889 50.7298 26.518C50.7298 26.53 50.7298 26.543 50.7447 26.556C50.907 26.8353 51.0351 27.1322 51.1251 27.442C51.1343 27.4782 51.1492 27.5135 51.1594 27.5515C51.3366 28.1694 51.3366 28.8235 51.1594 29.4405C51.1594 29.4785 51.1343 29.5147 51.1251 29.5509C51.0351 29.8608 50.907 30.1576 50.7447 30.436C50.7447 30.4499 50.7447 30.4629 50.7298 30.474C49.7751 32.041 47.837 32.7016 46.1243 32.0447C44.4107 31.3869 43.4125 29.6 43.7492 27.7974C44.087 25.9938 45.6651 24.6893 47.4993 24.6958ZM24.6983 94.9989C19.4517 94.9989 15.1979 90.746 15.1979 85.4985C15.1979 80.252 19.4517 75.9981 24.6983 75.9981C29.9458 75.9981 34.1987 80.252 34.1987 85.4985C34.1932 90.7432 29.943 94.9934 24.6983 94.9989ZM41.7991 87.3986H37.8467C38.0499 86.1405 38.0499 84.8574 37.8467 83.5984H41.7991V87.3986ZM24.6983 28.496C24.6983 23.3468 27.3091 18.9956 30.3986 18.9956C30.6379 18.9956 32.9351 19.2034 40.3415 26.0411C40.2738 26.2406 40.2051 26.44 40.1523 26.6479C40.0688 26.6247 39.9843 26.608 39.899 26.5959H34.1987C33.1494 26.5959 32.2986 27.4467 32.2986 28.496C32.2986 29.5453 33.1494 30.3961 34.1987 30.3961H39.899C39.9853 30.3849 40.0706 30.3673 40.1541 30.3451C40.2051 30.5519 40.2738 30.7514 40.3443 30.9509C32.9351 37.7895 30.6379 37.9964 30.3986 37.9964C27.3091 37.9964 24.6983 33.6451 24.6983 28.496ZM30.0831 41.7762C30.1898 41.7762 30.2928 41.7966 30.3986 41.7966C31.9535 41.7966 34.8148 41.0367 41.7991 34.7668V60.7974H20.9612C21.4567 53.5237 24.7215 46.7166 30.0831 41.7762ZM7.59754 77.8982C7.60589 70.5558 13.5557 64.6059 20.8981 64.5976H41.7991V79.7983H36.6972C34.504 75.1585 29.8317 72.1989 24.6983 72.1989C19.5658 72.1989 14.8926 75.1585 12.6994 79.7983H7.59754V77.8982ZM5.69746 83.5984H11.5499C11.3476 84.8574 11.3476 86.1405 11.5499 87.3986H5.69746C4.64815 87.3986 3.79738 86.5478 3.79738 85.4985C3.79738 84.4492 4.64815 83.5984 5.69746 83.5984Z" fill="url(#paint0_linear)"/>
<path d="M62.7 68.3976H58.8998C57.8505 68.3976 56.9998 69.2484 56.9998 70.2977C56.9998 71.347 57.8505 72.1978 58.8998 72.1978H62.7C63.7493 72.1978 64.6001 71.347 64.6001 70.2977C64.6001 69.2484 63.7493 68.3976 62.7 68.3976Z" fill="url(#paint1_linear)"/>
<path d="M93.1013 85.4984C93.1013 87.597 91.3998 89.2986 89.3011 89.2986C87.2025 89.2986 85.501 87.597 85.501 85.4984C85.501 83.3998 87.2025 81.6982 89.3011 81.6982C91.3998 81.6982 93.1013 83.3998 93.1013 85.4984Z" fill="url(#paint2_linear)"/>
<path d="M28.4985 85.4984C28.4985 87.597 26.797 89.2986 24.6984 89.2986C22.5997 89.2986 20.8982 87.597 20.8982 85.4984C20.8982 83.3998 22.5997 81.6982 24.6984 81.6982C26.797 81.6982 28.4985 83.3998 28.4985 85.4984Z" fill="url(#paint3_linear)"/>
</g>
<defs>
<linearGradient id="paint0_linear" x1="57" y1="15.1954" x2="57" y2="98.7991" gradientUnits="userSpaceOnUse">
<stop stop-color="#1CF0FE"/>
<stop offset="0.494792" stop-color="#1EF3FE"/>
<stop offset="0.59375" stop-color="#3DE9FB"/>
<stop offset="0.59385" stop-color="#1ABBF3"/>
<stop offset="1" stop-color="#25E3FC"/>
</linearGradient>
<linearGradient id="paint1_linear" x1="60.7999" y1="68.3976" x2="60.7999" y2="72.1978" gradientUnits="userSpaceOnUse">
<stop stop-color="#1CF0FE"/>
<stop offset="0.494792" stop-color="#1EF3FE"/>
<stop offset="0.59375" stop-color="#3DE9FB"/>
<stop offset="0.59385" stop-color="#1ABBF3"/>
<stop offset="1" stop-color="#25E3FC"/>
</linearGradient>
<linearGradient id="paint2_linear" x1="89.3011" y1="81.6982" x2="89.3011" y2="89.2986" gradientUnits="userSpaceOnUse">
<stop stop-color="#1CF0FE"/>
<stop offset="0.494792" stop-color="#1EF3FE"/>
<stop offset="0.59375" stop-color="#3DE9FB"/>
<stop offset="0.59385" stop-color="#1ABBF3"/>
<stop offset="1" stop-color="#25E3FC"/>
</linearGradient>
<linearGradient id="paint3_linear" x1="24.6984" y1="81.6982" x2="24.6984" y2="89.2986" gradientUnits="userSpaceOnUse">
<stop stop-color="#1CF0FE"/>
<stop offset="0.494792" stop-color="#1EF3FE"/>
<stop offset="0.59375" stop-color="#3DE9FB"/>
<stop offset="0.59385" stop-color="#1ABBF3"/>
<stop offset="1" stop-color="#25E3FC"/>
</linearGradient>
<clipPath id="clip0">
<rect width="114" height="114" fill="white"/>
</clipPath>
</defs>
</svg>
