<svg width="114" height="114" viewBox="0 0 114 114" fill="none" xmlns="http://www.w3.org/2000/svg">
<g clip-path="url(#clip0)">
<path d="M94.7406 9.14581C86.0301 9.14581 79.1477 16.1357 79.1477 24.8463C79.1477 33.5568 86.1376 40.4392 94.7406 40.4392C103.344 40.4392 110.441 33.4493 110.441 24.7387C110.441 16.0282 103.451 9.14581 94.7406 9.14581ZM94.7406 36.998C87.9658 36.998 82.4814 31.5136 82.4814 24.7387C82.4814 17.9639 88.0733 12.587 94.7406 12.587C101.516 12.587 107 18.0714 107 24.8463C107 31.6211 101.516 36.998 94.7406 36.998Z" fill="url(#paint0_linear)"/>
<path d="M99.6873 27.212C99.5797 26.8894 99.5797 26.6743 99.3646 26.3517C99.2571 26.1366 99.1496 25.814 98.9345 25.599C98.7194 25.3839 98.6119 25.1688 98.3968 24.9537C98.1817 24.7387 97.9667 24.5236 97.6441 24.416C97.429 24.201 97.1064 24.0934 96.8913 23.9859C96.5687 23.8784 96.3536 23.6633 96.031 23.5557C95.7084 23.4482 95.3858 23.3407 95.1707 23.2331C95.0631 23.2331 94.8481 23.1256 94.7405 23.0181C94.633 22.9105 94.4179 22.9105 94.3104 22.803C94.2028 22.6954 93.9878 22.6954 93.8802 22.5879C93.7727 22.4804 93.6652 22.3728 93.5576 22.2653C93.4501 22.1578 93.3426 22.0502 93.3426 21.8351C93.235 21.7276 93.235 21.5125 93.235 21.405C93.235 21.1899 93.235 21.0824 93.235 20.8673C93.235 20.7598 93.3426 20.5447 93.3426 20.4372C93.4501 20.3296 93.4501 20.1145 93.5576 20.007C93.6652 19.8995 93.7727 19.7919 93.8802 19.6844C93.9878 19.5769 94.2029 19.4693 94.4179 19.4693C94.633 19.3618 94.7405 19.3618 94.9556 19.3618C95.0632 19.3618 95.1707 19.3618 95.2782 19.3618C95.3858 19.3618 95.4933 19.3618 95.6008 19.3618C95.8159 19.3618 95.9235 19.3618 96.1385 19.4693C96.3536 19.4693 96.5687 19.5769 96.6762 19.5769C96.7838 19.5769 96.9988 19.6844 97.1064 19.6844C97.3214 19.6844 97.429 19.7919 97.5365 19.7919L98.0742 20.007L98.1817 19.3618L98.3968 17.6412V17.211L97.9667 17.1035C97.8591 17.1035 97.644 16.996 97.5365 16.996C97.429 16.996 97.3214 16.8884 97.1064 16.8884C96.9988 16.8884 96.7838 16.7809 96.5687 16.7809C96.3536 16.7809 96.2461 16.6733 96.031 16.6733H95.9234V15.1678V14.6301H95.3858H93.8802H93.3426V15.1678V16.7809H93.235C92.9124 16.8884 92.5898 16.996 92.2672 17.211C91.9446 17.3186 91.7295 17.5336 91.5144 17.7487C91.2993 17.9638 91.0843 18.1789 90.8692 18.5015C90.6541 18.7166 90.5466 19.0392 90.439 19.3618C90.3315 19.6844 90.224 20.007 90.1164 20.3296C90.0089 20.6522 90.0089 21.0824 90.0089 21.405C90.0089 21.7276 90.0089 21.9427 90.1164 22.2653C90.224 22.5879 90.224 22.803 90.439 23.1256C90.5466 23.3407 90.7617 23.6633 90.8692 23.8784C91.0843 24.0934 91.1918 24.3085 91.4069 24.5236C91.622 24.7387 91.837 24.9537 92.1596 25.0613C92.3747 25.2763 92.6973 25.3839 92.9124 25.4914C93.235 25.599 93.5576 25.814 93.7727 25.9216C94.0953 26.0291 94.4179 26.1366 94.633 26.2442C94.7405 26.2442 94.9556 26.3517 95.0632 26.4593C95.1707 26.5668 95.3858 26.5668 95.4933 26.6743C95.6008 26.7819 95.7084 26.8894 95.8159 26.8894C95.9234 26.9969 96.031 27.1045 96.1385 27.212C96.2461 27.3196 96.2461 27.4271 96.3536 27.6422C96.3536 27.7497 96.4611 27.9648 96.4611 28.1799C96.4611 28.3949 96.4611 28.5025 96.4611 28.7175C96.4611 28.8251 96.3536 29.0402 96.2461 29.1477C96.1385 29.2552 96.031 29.3628 95.9234 29.4703C95.8159 29.5778 95.7084 29.6854 95.4933 29.7929C95.3858 29.9005 95.1707 29.9005 95.0632 30.008C94.9556 30.008 94.7405 30.1155 94.5255 30.1155C94.4179 30.1155 94.3104 30.1155 94.0953 30.1155C93.9878 30.1155 93.7727 30.1155 93.6652 30.1155C93.4501 30.1155 93.235 30.1155 93.1275 30.1155C92.9124 30.1155 92.6973 30.008 92.5898 30.008C92.3747 30.008 92.1596 29.9005 91.9446 29.7929C91.7295 29.6854 91.5144 29.6854 91.2993 29.5778C91.1918 29.5778 91.0843 29.4703 90.9767 29.4703C90.8692 29.4703 90.7617 29.3628 90.6541 29.3628L90.0089 29.0402L89.9014 29.7929L89.6863 31.7286V32.0512L90.0089 32.1587C90.439 32.0512 90.6541 32.1587 90.9767 32.2663C91.1918 32.3738 91.5144 32.4814 91.7295 32.4814C91.9446 32.5889 92.2672 32.5889 92.5898 32.6964C92.9124 32.804 93.1275 32.804 93.4501 32.804H93.6652V34.417V34.9547H94.2028H95.7084H96.2461V34.417V32.6964H96.3536C96.6762 32.5889 96.9988 32.4814 97.3214 32.2663C97.644 32.1587 97.8591 31.9437 98.1817 31.7286C98.3968 31.5135 98.6119 31.2984 98.827 30.9758C99.042 30.7608 99.1496 30.4381 99.3646 30.1155C99.4722 29.7929 99.5797 29.4703 99.6873 29.1477C99.7948 28.8251 99.7948 28.5025 99.7948 28.0723C99.7948 27.7497 99.7948 27.5346 99.6873 27.212Z" fill="url(#paint1_linear)"/>
<path d="M87.2129 42.4824C86.6752 41.7297 85.4923 41.6221 84.7396 42.1598L67.3185 56.0322L44.8431 46.6764C44.3055 46.4613 43.6602 46.5689 43.2301 46.8915L19.1417 64.0975C18.3889 64.6352 18.1738 65.7105 18.7115 66.4633C19.0341 67.001 19.5718 67.2161 20.1095 67.2161C20.4321 67.2161 20.7547 67.1085 21.0773 66.8934L44.413 50.2251L66.9959 59.5809C67.5336 59.796 68.2863 59.6884 68.7165 59.3658L86.8903 44.9558C87.6431 44.4181 87.7506 43.2352 87.2129 42.4824Z" fill="url(#paint2_linear)"/>
<path d="M112.377 101.413H104.419V51.6231C104.419 50.6553 103.666 49.9025 102.698 49.9025H86.8903C85.9225 49.9025 85.1697 50.6553 85.1697 51.6231V101.413H79.3627V68.8291C79.3627 67.8613 78.6099 67.1085 77.6421 67.1085H61.7266C60.7587 67.1085 60.0059 67.8613 60.0059 68.8291V101.413H54.1989V66.2482C54.1989 65.2804 53.4462 64.5276 52.4783 64.5276H36.6703C35.7025 64.5276 34.9497 65.2804 34.9497 66.2482V101.413H29.1427V76.3568C29.1427 75.3889 28.3899 74.6362 27.4221 74.6362H11.5065C10.5387 74.6362 9.78592 75.3889 9.78592 76.3568V101.413H1.7206C0.752763 101.413 0 102.166 0 103.134C0 104.101 0.752763 104.854 1.7206 104.854H11.399H27.207H36.6703H52.4783H61.7266H77.5346H86.7828H102.591H112.269C113.237 104.854 113.99 104.101 113.99 103.134C114.097 102.166 113.345 101.413 112.377 101.413ZM25.5939 101.413H13.2271V78.0774H25.5939V101.413ZM50.7577 101.413H38.3909V67.9688H50.7577V101.413ZM75.814 101.413H63.4472V70.5497H75.814V101.413ZM100.978 101.413H88.6109V53.3437H100.978V101.413Z" fill="url(#paint3_linear)"/>
</g>
<defs>
<linearGradient id="paint0_linear" x1="94.7944" y1="9.14581" x2="94.7944" y2="40.4392" gradientUnits="userSpaceOnUse">
<stop stop-color="#1CF0FE"/>
<stop offset="0.494792" stop-color="#1EF3FE"/>
<stop offset="0.59375" stop-color="#3DE9FB"/>
<stop offset="0.59385" stop-color="#1ABBF3"/>
<stop offset="1" stop-color="#25E3FC"/>
</linearGradient>
<linearGradient id="paint1_linear" x1="94.7405" y1="14.6301" x2="94.7405" y2="34.9547" gradientUnits="userSpaceOnUse">
<stop stop-color="#1CF0FE"/>
<stop offset="0.494792" stop-color="#1EF3FE"/>
<stop offset="0.59375" stop-color="#3DE9FB"/>
<stop offset="0.59385" stop-color="#1ABBF3"/>
<stop offset="1" stop-color="#25E3FC"/>
</linearGradient>
<linearGradient id="paint2_linear" x1="52.9809" y1="41.8238" x2="52.9809" y2="67.2161" gradientUnits="userSpaceOnUse">
<stop stop-color="#1CF0FE"/>
<stop offset="0.494792" stop-color="#1EF3FE"/>
<stop offset="0.59375" stop-color="#3DE9FB"/>
<stop offset="0.59385" stop-color="#1ABBF3"/>
<stop offset="1" stop-color="#25E3FC"/>
</linearGradient>
<linearGradient id="paint3_linear" x1="57" y1="49.9025" x2="57" y2="104.854" gradientUnits="userSpaceOnUse">
<stop stop-color="#1CF0FE"/>
<stop offset="0.494792" stop-color="#1EF3FE"/>
<stop offset="0.59375" stop-color="#3DE9FB"/>
<stop offset="0.59385" stop-color="#1ABBF3"/>
<stop offset="1" stop-color="#25E3FC"/>
</linearGradient>
<clipPath id="clip0">
<rect width="114" height="114" fill="white"/>
</clipPath>
</defs>
</svg>
