<svg width="100" height="114" viewBox="0 0 100 114" fill="none" xmlns="http://www.w3.org/2000/svg">
<path d="M95.9245 89.6813C94.6908 82.2731 89.4964 76.1943 82.3696 73.8187L66.5493 68.5453V66.1936H62.8719V69.643L60.1267 80.6219L52.7001 71.7097H47.2999L39.8733 80.6219L37.1299 69.643V66.1936H33.4525V68.5453L17.6323 73.8187C10.5073 76.1943 5.31292 82.2731 4.0773 89.6813L0.0229492 114H99.977L95.9245 89.6813ZM41.0519 110.323H20.7746L22.4111 93.9581L18.752 93.5922L17.0788 110.324H4.36598L7.70508 90.288C8.71453 84.2258 12.9656 79.2539 18.7962 77.3086L33.9894 72.2429L38.064 88.5394L42.2103 83.5639L44.4039 86.8552L41.0519 110.323ZM55.2357 110.323H44.7661L48.2431 85.9836L44.665 80.6164L49.0227 75.3871H50.9773L55.335 80.6164L51.7569 85.9836L55.2357 110.323ZM82.923 110.323L81.2498 93.5904L77.5908 93.9563L79.2272 110.321H58.9499L55.5979 86.8533L57.7915 83.562L61.9378 88.5376L66.0124 72.2411L81.2057 77.3067C87.0362 79.2503 91.2855 84.224 92.2968 90.2862L95.6358 110.323H82.923Z" fill="url(#paint0_linear)"/>
<path d="M26.9105 49.5422C27.8482 52.7691 29.5803 55.7276 32.0221 58.1694L39.1931 65.3404C40.9288 67.0761 43.2364 68.0323 45.6929 68.0323H54.3109C56.7656 68.0323 59.075 67.0761 60.8108 65.3404L67.9817 58.1694C70.4235 55.7276 72.1556 52.7673 73.0933 49.5422C77.6736 49.0237 81.2591 45.1697 81.2591 40.4516C81.2591 37.4343 79.7771 34.7737 77.5246 33.0968H77.5816V22.0645C77.5816 17.4622 74.18 13.6377 69.7598 12.9739C66.9925 5.27342 59.588 0 51.3249 0H50.001C34.793 0 22.4203 12.3727 22.4203 27.5806V33.0968H22.4773C20.2249 34.7737 18.7429 37.4343 18.7429 40.4516C18.7429 45.1697 22.3284 49.0237 26.9105 49.5422ZM70.2268 43.8661C70.2268 48.2882 68.5058 52.4437 65.38 55.5695L58.209 62.7405C57.183 63.7665 55.7617 64.3548 54.3091 64.3548H45.6911C44.2385 64.3548 42.819 63.7665 41.7911 62.7405L34.6202 55.5695C31.4944 52.4437 29.7733 48.2882 29.7733 43.8679V34.9355H36.9976C45.0898 34.9355 52.7407 32.0616 58.7863 26.7974L59.349 27.7351C61.6952 31.646 65.7551 34.246 70.2268 34.8123V43.8661ZM77.5816 40.4516C77.5816 42.8769 75.9967 44.9197 73.8178 45.6552C73.8693 45.0649 73.9042 44.4692 73.9042 43.8679V35.2738C76.039 36.035 77.5816 38.0576 77.5816 40.4516ZM26.0978 27.5806C26.0978 14.4008 36.8211 3.67742 50.001 3.67742H51.3249C58.3892 3.67742 64.6794 8.42129 66.6211 15.2153L67.0017 16.5484H68.3881C71.4293 16.5484 73.9042 19.0233 73.9042 22.0645V31.4438C73.3103 31.3224 72.6943 31.2581 72.0655 31.2581C68.1711 31.2581 64.5066 29.184 62.5024 25.8431L59.5586 20.9374L57.8927 22.6033C52.3122 28.1837 44.8931 31.2581 36.9995 31.2581H27.9365C27.3076 31.2581 26.6917 31.3224 26.0978 31.4438V27.5806V27.5806ZM26.0978 35.2738V43.8679C26.0978 44.4692 26.1327 45.0649 26.1842 45.657C24.0053 44.9197 22.4203 42.8769 22.4203 40.4516C22.4203 38.0576 23.963 36.035 26.0978 35.2738Z" fill="url(#paint1_linear)"/>
<defs>
<linearGradient id="paint0_linear" x1="50" y1="66.1936" x2="50" y2="114" gradientUnits="userSpaceOnUse">
<stop stop-color="#1CF0FE"/>
<stop offset="0.494792" stop-color="#1EF3FE"/>
<stop offset="0.59375" stop-color="#3DE9FB"/>
<stop offset="0.59385" stop-color="#1ABBF3"/>
<stop offset="1" stop-color="#25E3FC"/>
</linearGradient>
<linearGradient id="paint1_linear" x1="50.001" y1="0" x2="50.001" y2="68.0323" gradientUnits="userSpaceOnUse">
<stop stop-color="#1CF0FE"/>
<stop offset="0.494792" stop-color="#1EF3FE"/>
<stop offset="0.59375" stop-color="#3DE9FB"/>
<stop offset="0.59385" stop-color="#1ABBF3"/>
<stop offset="1" stop-color="#25E3FC"/>
</linearGradient>
</defs>
</svg>
