<svg width="114" height="114" viewBox="0 0 114 114" fill="none" xmlns="http://www.w3.org/2000/svg">
<path d="M57.0202 0.012879C34.2131 0.00955472 13.6005 13.6043 4.62363 34.5705L3.91318 34.806L4.18862 35.6324C-7.63071 64.7832 6.419 97.9961 35.5698 109.815C42.3783 112.576 49.6564 113.993 57.0033 113.989C88.4769 113.994 113.995 88.4831 114 57.0095C114.005 25.536 88.494 0.0173906 57.0202 0.012879ZM101.721 85.7335L98.7946 82.809V75.997C98.7979 75.7031 98.7329 75.4124 98.6046 75.1479L91.1962 60.3519V53.2018C91.1962 52.5669 90.8792 51.9737 90.3509 51.6213L84.6521 47.8221C84.2054 47.5239 83.6533 47.4287 83.1324 47.56L76.1532 49.3038L64.4308 44.2737L62.818 32.9748L67.2878 28.5069H76.8827L80.112 33.3604C80.4036 33.7969 80.8631 34.0934 81.3809 34.1792L92.7786 36.0788C93.0839 36.1301 93.3969 36.1051 93.6904 36.0066L104.188 32.5075C112.992 49.4033 112.05 69.7245 101.721 85.7335ZM93.886 18.7316L90.7973 20.7907L82.1864 19.0678L76.5996 17.2081C76.2577 17.092 75.8897 17.0773 75.5397 17.1663L68.4769 18.931L65.3806 17.8996L67.6753 13.3101H74.0998C74.3944 13.3103 74.6851 13.2422 74.9489 13.1106L81.5215 9.82433C86.0478 12.187 90.2117 15.1864 93.886 18.7316ZM36.197 8.0539L40.756 11.0933C40.9802 11.2424 41.2333 11.3421 41.4988 11.3858L50.7042 12.9207L49.8057 15.6086L45.0092 17.21C44.5797 17.3529 44.2152 17.6445 43.9815 18.0325L38.5259 27.124L29.763 32.3821L16.8457 34.2266C15.9094 34.3589 15.2132 35.1598 15.212 36.1054V41.8042C15.212 42.308 15.4124 42.791 15.7686 43.1472L19.0112 46.3898V49.6533L11.1089 44.3838L8.24238 35.7843C13.6961 23.3229 23.6921 13.407 36.197 8.0539ZM30.7888 70.3362L22.2026 68.6171L19.0112 62.2515V57.7874L26.0892 50.7095L28.7087 55.9505C29.0305 56.5945 29.6889 57.0012 30.4089 57.001H42.6309L47.7769 65.5777C48.1203 66.1493 48.7381 66.4988 49.4049 66.499H54.6858L53.3561 73.1609L46.1642 80.3528C45.8073 80.7088 45.6064 81.1917 45.6057 81.6959V86.4449L38.7671 91.5738C38.2889 91.9326 38.0073 92.4956 38.0073 93.0935V99.9549L35.6442 99.1722L32.3085 90.8292V72.1978C32.3087 71.295 31.6733 70.5167 30.7888 70.3362ZM25.0786 99.5381C7.16791 86.101 -0.406519 62.8841 6.13382 41.4698L7.71239 46.2037C7.84536 46.6042 8.10798 46.9492 8.45893 47.1838L17.9285 53.4962L15.7686 55.658C15.4124 56.0142 15.212 56.4971 15.212 57.001V62.6998C15.2118 62.9945 15.2799 63.2851 15.4115 63.5489L19.2107 71.1474C19.4738 71.6721 19.9646 72.0459 20.5404 72.1598L28.5188 73.7536V91.1939C28.5185 91.4351 28.5643 91.6745 28.6536 91.8986L32.4528 101.397C32.6608 101.915 33.0868 102.317 33.6173 102.493L39.3161 104.392C39.5065 104.457 39.706 104.49 39.9069 104.491C40.9559 104.491 41.8065 103.641 41.8065 102.591V94.0433L48.6451 88.9144C49.1233 88.5556 49.4049 87.9926 49.4049 87.3947V82.4823L56.4467 75.4405C56.7115 75.1752 56.892 74.8373 56.9653 74.4698L58.8649 64.9717C59.0706 63.9429 58.4033 62.9422 57.3745 62.7366C57.2522 62.7122 57.128 62.6998 57.0033 62.6998H50.4801L45.3341 54.1231C44.9907 53.5516 44.3728 53.202 43.7061 53.2018H31.5828L28.3193 46.6539C28.046 46.1072 27.5264 45.7254 26.9231 45.6281C26.32 45.5238 25.7043 45.7228 25.2761 46.16L22.8104 48.6161V45.6034C22.8104 45.0995 22.61 44.6165 22.2539 44.2604L19.0112 41.0177V37.7523L30.6786 36.0864C30.9291 36.05 31.1701 35.9641 31.3872 35.8337L40.8852 30.1349C41.1516 29.9749 41.3748 29.7517 41.5348 29.4852L46.8727 20.5894L51.9048 18.9101C52.473 18.7237 52.9189 18.278 53.1053 17.7096L55.0049 12.0108C55.334 11.0147 54.7934 9.94021 53.7973 9.6111C53.7054 9.58071 53.6111 9.55744 53.5156 9.54129L42.5207 7.70817L40.5888 6.42024C52.5428 2.52938 65.49 3.01093 77.122 7.77846L73.6514 9.5109H66.5013C65.7778 9.50686 65.1151 9.91433 64.7917 10.5614L60.9925 18.1598C60.5245 19.0987 60.9061 20.2394 61.8449 20.7074C61.925 20.7473 62.0076 20.7815 62.0924 20.8097L67.7912 22.7093C68.1331 22.8255 68.5011 22.8402 68.8511 22.7511L75.9139 20.9864L81.0884 22.7093C81.1625 22.7359 81.2387 22.7564 81.3163 22.7701L90.8144 24.6697C91.3083 24.7704 91.8221 24.6693 92.241 24.3886L96.5645 21.505C98.6923 23.875 100.604 26.43 102.278 29.1395L92.9324 32.2549L82.8132 30.568L79.4699 25.5531C79.1195 25.0276 78.5306 24.7108 77.899 24.7077H66.5013C65.9975 24.7077 65.5145 24.9081 65.1583 25.2643L59.4595 30.9631C59.0364 31.386 58.8371 31.9837 58.9219 32.5759L60.8215 45.8731C60.9172 46.5306 61.3494 47.0903 61.9613 47.3491L75.2585 53.0479C75.6394 53.213 76.0644 53.2469 76.4667 53.1448L83.2501 51.4485L87.397 54.2181V60.8002C87.3937 61.0942 87.4587 61.3848 87.5869 61.6493L94.9954 76.4453V83.5955C94.9954 84.0993 95.1958 84.5823 95.552 84.9385L99.526 88.9144C81.9017 112.406 48.5703 117.163 25.0786 99.5381Z" fill="url(#paint0_linear)"/>
<defs>
<linearGradient id="paint0_linear" x1="57" y1="0.0128784" x2="57" y2="113.989" gradientUnits="userSpaceOnUse">
<stop stop-color="#1CF0FE"/>
<stop offset="0.494792" stop-color="#1EF3FE"/>
<stop offset="0.59375" stop-color="#3DE9FB"/>
<stop offset="0.59385" stop-color="#1ABBF3"/>
<stop offset="1" stop-color="#25E3FC"/>
</linearGradient>
</defs>
</svg>
