<svg width="102" height="114" viewBox="0 0 102 114" fill="none" xmlns="http://www.w3.org/2000/svg">
<path d="M68.5797 30.6828H13.9869C13.0606 30.6828 12.3098 31.4336 12.3098 32.3598C12.3098 33.2861 13.0606 34.0369 13.9869 34.0369H68.5799C69.5062 34.0369 70.257 33.2861 70.257 32.3598C70.257 31.4336 69.506 30.6828 68.5797 30.6828Z" fill="url(#paint0_linear)"/>
<path d="M13.9869 22.4038H41.2832C42.2094 22.4038 42.9602 21.653 42.9602 20.7268C42.9602 19.8005 42.2094 19.0497 41.2832 19.0497H13.9869C13.0606 19.0497 12.3098 19.8005 12.3098 20.7268C12.3098 21.6532 13.0606 22.4038 13.9869 22.4038V22.4038Z" fill="url(#paint1_linear)"/>
<path d="M68.5797 40.9901H13.9869C13.0606 40.9901 12.3098 41.7409 12.3098 42.6671C12.3098 43.5934 13.0606 44.3442 13.9869 44.3442H68.5799C69.5062 44.3442 70.257 43.5934 70.257 42.6671C70.2568 41.7409 69.506 40.9901 68.5797 40.9901Z" fill="url(#paint2_linear)"/>
<path d="M26.4228 102.348H8.95165C6.08406 102.348 3.75084 100.015 3.75084 97.1474V8.55468C3.75084 5.68709 6.08406 3.35387 8.95165 3.35387H59.2844C59.447 3.35387 59.607 3.36879 59.7654 3.39016V13.8492C59.7654 18.5664 63.6031 22.4039 68.32 22.4039H78.7789C78.8005 22.5624 78.8152 22.7225 78.8152 22.8851V51.4432C78.8152 52.3694 79.566 53.1202 80.4922 53.1202C81.4185 53.1202 82.1692 52.3694 82.1692 51.4432V22.8853C82.1692 21.0457 81.4527 19.3161 80.152 18.0151L64.1541 2.01727C62.8534 0.716508 61.124 0 59.2844 0H8.95165C4.23445 0 0.396973 3.8377 0.396973 8.55468V97.1474C0.396973 101.864 4.23468 105.702 8.95165 105.702H26.4228C27.3491 105.702 28.0999 104.951 28.0999 104.025C28.0999 103.099 27.3491 102.348 26.4228 102.348V102.348ZM76.4436 19.05H68.3203C65.4527 19.05 63.1195 16.7168 63.1195 13.8492V5.72583L76.4436 19.05Z" fill="url(#paint3_linear)"/>
<path d="M101.088 82.0999L86.8789 58.1154C85.8433 56.3666 83.5896 55.7886 81.8399 56.8251L78.3837 58.8729C75.7009 60.4622 74.5669 63.6784 75.488 66.5287C74.3235 66.9506 73.0468 66.9439 71.8712 66.4895C69.1423 65.6309 67.0676 63.9038 63.6411 64.7703C57.8231 66.2517 57.9999 66.1775 57.4736 66.3579C54.0669 64.4183 52.0192 63.8412 48.4028 65.2401L45.1792 66.4864C43.6867 67.063 42.0422 66.9263 40.663 66.1092L39.7833 65.5906C40.2126 63.0185 39.0719 60.3041 36.6565 58.8733C36.6565 58.8733 36.6565 58.8733 36.6563 58.8731L33.2003 56.8255C31.4555 55.7922 29.1951 56.3706 28.1615 58.1154L13.9516 82.1001C12.916 83.8484 13.4923 86.1028 15.2415 87.1388L18.6975 89.1864C19.7434 89.806 20.8927 90.1006 22.0283 90.1006C23.2945 90.1006 24.5429 89.7337 25.6103 89.0425L26.3306 89.4676L24.8099 91.5857C22.9977 94.1102 23.5735 97.6206 26.0984 99.433C27.266 100.271 28.7329 100.654 30.2498 100.416C30.4905 101.823 31.2614 103.139 32.5096 104.036C33.6819 104.877 35.142 105.261 36.6617 105.021C36.903 106.427 37.6734 107.743 38.921 108.639C40.5976 109.842 42.6821 109.981 44.419 109.239C44.7991 110.227 45.4597 111.118 46.3813 111.78C48.7877 113.507 52.1027 113.056 53.9725 110.819L58.0137 113.213C60.6863 114.797 64.1345 113.916 65.7192 111.241C66.1244 110.557 66.3758 109.811 66.4678 109.045L66.4769 109.051C69.1454 110.631 72.6015 109.746 74.1824 107.078C74.6401 106.306 74.8911 105.467 74.9521 104.627C77.3042 105.219 79.8677 104.231 81.1657 102.04C81.5917 101.321 81.8386 100.545 81.9199 99.7632C84.4408 100.752 87.3872 99.7964 88.8109 97.3935C89.5766 96.101 89.7932 94.5878 89.4207 93.1323C89.2076 92.2996 88.8158 91.5436 88.2778 90.9053L90.5053 89.6039C92.3896 90.3774 94.54 90.2536 96.3422 89.1862L99.7978 87.1386C101.547 86.1033 102.125 83.8493 101.088 82.0999V82.0999ZM20.4071 86.301L16.951 84.2532C16.7974 84.1621 16.7464 83.9631 16.8372 83.8095L31.0472 59.8243C31.1387 59.67 31.3384 59.6199 31.4911 59.7107L34.947 61.758C36.4826 62.668 36.9631 64.6376 36.0698 66.1452L24.7943 85.1779C23.8943 86.6973 21.9265 87.2007 20.4071 86.301V86.301ZM28.0542 96.7084C27.0358 95.9772 26.8029 94.5606 27.5345 93.5418L29.7698 90.4281C30.4818 89.4362 31.9008 89.1648 32.9364 89.9082C33.9528 90.6379 34.1859 92.0582 33.4565 93.0746L31.2211 96.1882C30.4914 97.2051 29.0702 97.4376 28.0542 96.7084V96.7084ZM34.4656 101.311C33.4492 100.581 33.2161 99.1607 33.9457 98.1445L36.1809 95.0311C36.1809 95.0311 36.1809 95.0311 36.1809 95.0309C36.1809 95.0309 36.1809 95.0307 36.1812 95.0307L38.648 91.5946C39.0016 91.1023 39.5255 90.7768 40.1235 90.6788C40.2478 90.6584 40.3722 90.6483 40.4958 90.6483C40.9665 90.6483 41.4245 90.7948 41.8146 91.0747C42.3067 91.4283 42.6322 91.952 42.7302 92.55C42.8284 93.1483 42.6879 93.7488 42.3343 94.2411L37.632 100.791C36.9012 101.81 35.4845 102.043 34.4656 101.311V101.311ZM40.877 105.914C39.861 105.184 39.6277 103.765 40.356 102.749C40.3562 102.748 40.3566 102.748 40.3569 102.747L45.0591 96.1974C45.7883 95.1812 47.2098 94.9478 48.2258 95.6773C49.2422 96.4069 49.4753 97.8274 48.7457 98.8439L46.6565 101.754C46.6565 101.754 46.6565 101.754 46.6563 101.754L44.0434 105.394C43.3137 106.41 41.8936 106.644 40.877 105.914V105.914ZM48.3373 109.055C47.3216 108.326 47.088 106.907 47.8159 105.89L49.3809 103.71C50.1103 102.694 51.5315 102.461 52.5475 103.191C53.5637 103.92 53.7971 105.341 53.0674 106.357L51.5037 108.535C50.7743 109.552 49.3533 109.785 48.3373 109.055V109.055ZM85.9259 95.6842C85.2878 96.7611 83.8931 97.1183 82.8158 96.4804C80.9918 95.3998 69.2258 88.4291 67.9714 87.6859C67.1742 87.2139 66.1458 87.4768 65.6738 88.2737C65.2017 89.0706 65.4647 90.0993 66.2616 90.5713L77.4841 97.22L77.4843 97.2203C78.5618 97.8584 78.9211 99.2489 78.2806 100.331C77.6422 101.408 76.2468 101.764 75.1701 101.127C71.0193 98.668 67.6489 96.6712 63.9415 94.4747C63.1442 94.0027 62.1159 94.2656 61.6439 95.0625C61.1719 95.8594 61.4348 96.8881 62.2317 97.3601L70.5007 102.259L70.5025 102.26C71.5806 102.9 71.9364 104.29 71.2972 105.369C70.6588 106.447 69.2639 106.804 68.1864 106.166L63.7487 103.537C63.7482 103.537 63.7476 103.536 63.7471 103.536C63.7467 103.536 63.7462 103.535 63.7458 103.535L60.5073 101.616C59.7101 101.144 58.6817 101.407 58.2097 102.204C57.7376 103.001 58.0006 104.03 58.7975 104.502L62.0367 106.421C62.0371 106.421 62.0376 106.422 62.038 106.422C63.1155 107.06 63.4748 108.45 62.8342 109.532C62.1959 110.609 60.8009 110.966 59.7235 110.328L55.9448 108.09C57.5646 105.59 56.9485 102.222 54.5035 100.467C53.7855 99.9516 52.9859 99.6307 52.1681 99.4929C53.0356 97.1735 52.2877 94.4656 50.1816 92.9537C48.9347 92.0582 47.4418 91.7489 46.0328 91.9698C45.7821 90.5036 44.9803 89.2193 43.7706 88.3512C41.4955 86.7185 38.4037 87.0322 36.494 88.9642C36.1059 88.2826 35.5702 87.6712 34.8924 87.1847C33.0019 85.8278 30.5473 85.8151 28.6756 86.958L27.9073 86.5045L38.4545 68.7011L38.9566 68.9972C41.1742 70.3109 43.8804 70.5848 46.3884 69.6149L49.612 68.3687C51.4567 67.6557 52.474 67.6092 54.2987 68.4702C53.1048 69.8115 52.3961 71.5725 52.3961 73.4704V80.906C52.3961 82.881 54.0017 84.4888 55.9751 84.4901H55.98C57.9594 84.4901 59.8208 83.7195 61.2211 82.3201C62.0373 81.5043 62.6399 80.5317 63.001 79.4701C65.1663 80.7524 83.0561 91.3461 85.1301 92.575C85.6518 92.884 86.0219 93.3777 86.1722 93.965C86.3225 94.5517 86.235 95.1625 85.9259 95.6842V95.6842ZM98.0892 84.2532L94.6329 86.301C93.1135 87.2005 91.1456 86.6966 90.2461 85.1781L84.9611 76.2574C84.4889 75.4605 83.4598 75.1976 82.6636 75.6691C81.8667 76.1412 81.6035 77.1698 82.0753 77.9667L87.3603 86.8877C87.4598 87.0556 87.5678 87.2152 87.6795 87.3708L86.2102 88.2292C85.9132 88.4051 85.6276 88.5988 85.3544 88.8092L62.5715 75.3173C61.4553 74.6567 60.0401 75.4621 60.0401 76.7602C60.0225 76.8604 60.2134 78.5842 58.85 79.947C58.0832 80.7132 57.0639 81.1354 55.9798 81.1354C55.9789 81.1354 55.978 81.1354 55.9771 81.1354C55.8517 81.1354 55.7498 81.032 55.7498 80.9051V73.4695C55.7498 71.5271 57.0861 69.8883 58.8934 69.4308L64.4634 68.0211C66.4845 67.5103 67.6269 68.5896 70.653 69.6138C72.7538 70.4265 75.038 70.3764 77.0655 69.5105L78.0777 71.2191C78.55 72.0165 79.5787 72.2792 80.3753 71.8074C81.1722 71.3354 81.4354 70.3067 80.9636 69.5098L78.9699 66.1448C78.0679 64.6223 78.5705 62.6602 80.0928 61.7578L83.5488 59.7105C83.6998 59.6208 83.8995 59.6666 83.993 59.8243L98.2025 83.809C98.2942 83.9638 98.2437 84.1617 98.0892 84.2532V84.2532Z" fill="url(#paint4_linear)"/>
<defs>
<linearGradient id="paint0_linear" x1="41.2834" y1="30.6828" x2="41.2834" y2="34.0369" gradientUnits="userSpaceOnUse">
<stop stop-color="#1CF0FE"/>
<stop offset="0.494792" stop-color="#1EF3FE"/>
<stop offset="0.59375" stop-color="#3DE9FB"/>
<stop offset="0.59385" stop-color="#1ABBF3"/>
<stop offset="1" stop-color="#25E3FC"/>
</linearGradient>
<linearGradient id="paint1_linear" x1="27.635" y1="19.0497" x2="27.635" y2="22.4038" gradientUnits="userSpaceOnUse">
<stop stop-color="#1CF0FE"/>
<stop offset="0.494792" stop-color="#1EF3FE"/>
<stop offset="0.59375" stop-color="#3DE9FB"/>
<stop offset="0.59385" stop-color="#1ABBF3"/>
<stop offset="1" stop-color="#25E3FC"/>
</linearGradient>
<linearGradient id="paint2_linear" x1="41.2834" y1="40.9901" x2="41.2834" y2="44.3442" gradientUnits="userSpaceOnUse">
<stop stop-color="#1CF0FE"/>
<stop offset="0.494792" stop-color="#1EF3FE"/>
<stop offset="0.59375" stop-color="#3DE9FB"/>
<stop offset="0.59385" stop-color="#1ABBF3"/>
<stop offset="1" stop-color="#25E3FC"/>
</linearGradient>
<linearGradient id="paint3_linear" x1="41.2831" y1="0" x2="41.2831" y2="105.702" gradientUnits="userSpaceOnUse">
<stop stop-color="#1CF0FE"/>
<stop offset="0.494792" stop-color="#1EF3FE"/>
<stop offset="0.59375" stop-color="#3DE9FB"/>
<stop offset="0.59385" stop-color="#1ABBF3"/>
<stop offset="1" stop-color="#25E3FC"/>
</linearGradient>
<linearGradient id="paint4_linear" x1="57.5201" y1="56.3103" x2="57.5201" y2="114" gradientUnits="userSpaceOnUse">
<stop stop-color="#1CF0FE"/>
<stop offset="0.494792" stop-color="#1EF3FE"/>
<stop offset="0.59375" stop-color="#3DE9FB"/>
<stop offset="0.59385" stop-color="#1ABBF3"/>
<stop offset="1" stop-color="#25E3FC"/>
</linearGradient>
</defs>
</svg>
