<svg width="112" height="114" viewBox="0 0 112 114" fill="none" xmlns="http://www.w3.org/2000/svg">
<path d="M110.031 81.5955C107.905 78.4703 104.297 77.7073 100.379 79.5513L98.3016 80.4657C101.576 73.4855 101.983 65.7043 100.352 58.3544C98.4801 49.9129 93.9578 41.7351 86.9111 34.0484C86.2882 33.3686 85.2321 33.3227 84.5521 33.9459C83.8723 34.5689 83.8265 35.625 84.4497 36.305C91.0951 43.5538 95.3487 51.2156 97.0926 59.0774C98.9292 67.3586 97.8607 75.8988 93.1736 82.7235L72.3904 91.8744L72.4075 89.5272C72.408 89.468 72.4053 89.4087 72.3993 89.3497C71.9195 84.5254 68.2318 80.6817 63.4316 80.0026C63.4174 80.0004 63.4031 79.9986 63.3886 79.9971L44.9168 77.8702C37.8139 76.8592 35.9845 72.6026 26.3649 70.1755C25.7003 64.5356 26.5862 58.5308 29.0145 52.5108C32.6716 43.4447 39.8263 34.6364 49.7447 26.9697C53.4415 29.5908 69.9343 29.917 73.625 26.5357C75.5158 27.9716 77.3205 29.4514 79.0015 30.9492C79.3197 31.2329 79.7165 31.3723 80.1117 31.3723C80.5712 31.3723 81.029 31.1837 81.3588 30.8134C81.9722 30.1249 81.9112 29.0696 81.2227 28.4561C79.38 26.8145 77.3979 25.1947 75.319 23.6292C75.8062 21.5634 75.1244 19.1455 73.3253 17.7063C78.5531 9.77705 80.0736 4.58716 77.9733 1.86808C76.5307 0.000217065 74.7361 0.876815 73.9697 1.25132C72.6707 1.88545 71.9625 1.91885 70.7672 1.13688C68.487 -0.355142 66.0903 -0.403236 63.7366 1.13688C62.5263 1.92887 61.5731 1.92887 60.3632 1.13688C58.0827 -0.355142 55.687 -0.403236 53.3328 1.13688C52.1238 1.9282 51.4128 1.87921 50.1344 1.24375C49.3689 0.863233 47.5763 -0.0278377 46.1245 1.84025C44.0714 4.48273 45.445 9.50897 50.32 17.1686C50.0215 17.33 49.7369 17.5195 49.4713 17.7359C47.5324 15.6884 44.3558 13.5529 39.7619 14.0659C35.9516 14.4922 33.1419 13.2331 31.4555 12.102C30.6896 11.589 29.6524 11.7934 29.139 12.5589C28.6255 13.3249 28.8302 14.362 29.5959 14.8754C31.7456 16.3167 35.3184 17.9212 40.1324 17.3843C43.6816 16.9862 46.0898 18.8 47.5889 20.6458C47.5685 20.717 47.5495 20.7887 47.5319 20.8604C46.2532 20.8805 44.3422 20.9998 42.2376 21.4376C37.1762 22.4905 33.4191 24.8959 31.3722 28.3942C30.9067 29.19 31.1743 30.2129 31.9701 30.6787C32.7661 31.1443 33.7887 30.8764 34.2543 30.0806C37.2989 24.8774 44.7305 24.241 47.6822 24.2012C47.6949 24.2379 47.7098 24.2742 47.7232 24.3107C37.1898 32.4361 29.8564 41.4976 25.918 51.261C23.4287 57.4324 22.4344 63.6151 22.9391 69.4908C21.338 69.2539 19.7184 69.1267 18.091 69.1156V68.1059C18.091 65.4342 15.9174 63.2609 13.2458 63.2609H5.58106C2.90941 63.2609 0.73584 65.4344 0.73584 68.1059V106.991C0.73584 109.663 2.90941 111.837 5.58106 111.837H13.2456C15.9172 111.837 18.0908 109.663 18.0908 106.991V106.516L34.8103 112.739C37.0571 113.575 39.4119 113.999 41.8092 113.999H66.7214C70.5301 113.999 74.2438 112.921 77.4607 110.883C110.694 89.8153 108.676 91.1261 108.868 90.956C111.545 88.5798 112.045 84.5555 110.031 81.5955V81.5955ZM70.4918 24.5572C64.3861 26.0989 58.4497 26.0989 52.3427 24.5572C49.7222 23.8948 50.4815 19.2212 53.2976 19.9275C58.7612 21.2991 64.0729 21.2991 69.5368 19.9275C72.304 19.2328 73.1543 23.8843 70.4918 24.5572ZM48.6094 4.2151C48.6225 4.22156 48.6357 4.22824 48.6481 4.23447C50.9079 5.35755 52.8879 5.41856 55.161 3.93144C58.0057 2.06936 58.3145 5.05496 62.0496 5.05496C63.8477 5.05496 64.8401 4.40569 65.5647 3.93144C66.7752 3.13923 67.7287 3.13967 68.939 3.93144C71.2221 5.42546 73.1543 5.35176 75.4798 4.23024C75.8233 5.46866 75.0458 9.16052 70.0948 16.5318C67.6362 16.4899 64.0684 18.9046 53.9683 16.6569C49.028 9.19035 48.264 5.46264 48.6094 4.2151V4.2151ZM106.742 88.3769L75.6735 108.064C72.992 109.763 69.8964 110.661 66.7216 110.661H41.8095C39.8111 110.661 37.8482 110.307 35.9752 109.61L18.0908 102.954V84.973C18.0908 84.0507 17.3433 83.3033 16.4213 83.3033C15.4993 83.3033 14.7518 84.0507 14.7518 84.973V106.992C14.7518 107.823 14.0761 108.498 13.2458 108.498H5.58106C4.75055 108.498 4.07502 107.823 4.07502 106.992V68.1068C4.07502 67.2763 4.75055 66.6009 5.58106 66.6009H13.2456C14.0761 66.6009 14.7516 67.2765 14.7516 68.1068V77.1675C14.7516 78.0898 15.4991 78.8372 16.4211 78.8372C17.3431 78.8372 18.0906 78.0898 18.0906 77.1675V72.4557C31.9021 72.5614 35.0075 79.8412 44.47 81.1796C44.4842 81.1818 44.4985 81.1836 44.5127 81.1851L62.9836 83.3117C66.2179 83.7786 68.707 86.3541 69.0673 89.5966L69.0441 92.7726H51.8183C50.8963 92.7726 50.1486 93.5201 50.1486 94.4423C50.1486 95.3646 50.8961 96.112 51.8183 96.112H70.7016C70.9124 96.112 71.156 96.0653 71.368 95.9729C71.402 95.9577 101.708 82.6146 101.743 82.599C103.928 81.6282 105.919 81.4895 107.27 83.4743C108.32 85.0166 108.088 87.1018 106.742 88.3769Z" fill="url(#paint0_linear)"/>
<path d="M61.8574 75.7522C62.7794 75.7522 63.5271 75.0047 63.5271 74.0825V71.3148C68.2142 70.5542 70.9491 66.7604 71.5441 63.2211C72.2873 58.7998 69.9714 54.9547 65.6443 53.4253C64.8797 53.155 64.1761 52.8965 63.5269 52.6469V42.0013C65.5021 42.3288 66.6879 43.351 66.7743 43.4274C67.4525 44.0441 68.5021 43.9985 69.1245 43.3238C69.7497 42.6461 69.7069 41.5898 69.0292 40.9646C68.9114 40.8559 66.8665 39.0148 63.5269 38.6298V36.2554C63.5269 35.3331 62.7794 34.5857 61.8572 34.5857C60.9352 34.5857 60.1877 35.3331 60.1877 36.2554V38.7647C59.7851 38.8418 59.3728 38.9397 58.9491 39.0673C56.1169 39.9203 53.9999 42.3488 53.4238 45.4048C52.9013 48.178 53.7805 50.8449 55.7183 52.3648C56.8309 53.2374 58.2314 54.0363 60.1877 54.8904V68.0941C58.2568 68.0124 57.0683 67.6499 54.9949 66.2935C54.2234 65.789 53.1885 66.0047 52.6837 66.7767C52.179 67.5482 52.3952 68.5831 53.1669 69.0878C55.8924 70.8709 57.7144 71.336 60.1877 71.4322V74.0825C60.1877 75.0047 60.9352 75.7522 61.8574 75.7522V75.7522ZM57.7792 49.7375C56.826 48.9898 56.4143 47.5666 56.7054 46.0233C56.9752 44.5921 57.9591 42.8531 59.9123 42.2649C60.0051 42.2368 60.0964 42.2128 60.1877 42.1883V51.207C59.188 50.7078 58.404 50.2275 57.7792 49.7375V49.7375ZM64.5315 56.5737C68.6863 58.0421 68.4289 61.6095 68.251 62.6678C67.8827 64.8589 66.2742 67.1981 63.5269 67.9022V56.2118C63.852 56.3307 64.1839 56.4508 64.5315 56.5737V56.5737Z" fill="url(#paint1_linear)"/>
<defs>
<linearGradient id="paint0_linear" x1="55.9998" y1="-0.000244141" x2="55.9998" y2="113.999" gradientUnits="userSpaceOnUse">
<stop stop-color="#1CF0FE"/>
<stop offset="0.494792" stop-color="#1EF3FE"/>
<stop offset="0.59375" stop-color="#3DE9FB"/>
<stop offset="0.59385" stop-color="#1ABBF3"/>
<stop offset="1" stop-color="#25E3FC"/>
</linearGradient>
<linearGradient id="paint1_linear" x1="62.0463" y1="34.5857" x2="62.0463" y2="75.7522" gradientUnits="userSpaceOnUse">
<stop stop-color="#1CF0FE"/>
<stop offset="0.494792" stop-color="#1EF3FE"/>
<stop offset="0.59375" stop-color="#3DE9FB"/>
<stop offset="0.59385" stop-color="#1ABBF3"/>
<stop offset="1" stop-color="#25E3FC"/>
</linearGradient>
</defs>
</svg>
