<svg width="114" height="114" viewBox="0 0 114 114" fill="none" xmlns="http://www.w3.org/2000/svg">
<g clip-path="url(#clip0)">
<path d="M34.1393 35.7238C32.775 30.5918 29.1404 26.6076 24.1643 24.7894C18.9488 22.8857 13.0589 23.6893 8.41337 26.9421C7.82444 27.3524 7.51851 28.0594 7.62116 28.7678C7.7218 29.4783 8.21387 30.0693 8.8923 30.2993L31.6923 38.0132C31.8898 38.0815 32.0971 38.1138 32.3003 38.1138C32.7753 38.1138 33.2408 37.937 33.6018 37.5988C34.1128 37.1203 34.3198 36.4 34.1393 35.7238ZM14.4516 28.1693C17.1934 27.3257 20.144 27.3713 22.8571 28.3613C25.3575 29.2753 27.4133 30.9053 28.8231 33.0333L14.4516 28.1693Z" fill="url(#paint0_linear)"/>
<path d="M33.2879 34.5917C28.7052 31.8063 22.6839 31.8595 17.5768 34.7322C12.5951 37.5328 9.5 42.4254 9.5 47.5002C9.5 48.169 9.85157 48.7885 10.4271 49.1323C10.7273 49.3108 11.0637 49.4001 11.3999 49.4001C11.7096 49.4001 12.0211 49.3242 12.3044 49.1721L33.2044 37.8861C33.8029 37.5631 34.183 36.9436 34.1999 36.2636C34.217 35.5834 33.8695 34.9451 33.2879 34.5917ZM14.0315 43.9226C15.0043 41.576 16.8986 39.4746 19.4389 38.0458C21.4927 36.8924 23.6665 36.3131 25.7677 36.3131C26.4497 36.3131 27.1223 36.3739 27.7816 36.4974L14.0315 43.9226Z" fill="url(#paint1_linear)"/>
<path d="M33.0621 37.9544L31.5383 34.4736C25.8479 36.9645 22.2435 40.5517 20.8261 45.1364C18.5461 52.5103 22.9028 59.6086 23.0889 59.9069C23.4385 60.4656 24.0504 60.8 24.7001 60.8C24.776 60.8 24.8501 60.7962 24.9261 60.7867C25.6575 60.6974 26.2714 60.1957 26.5031 59.4966L32.6402 40.9527L29.4767 39.9058C30.5256 39.193 31.7206 38.5416 33.0621 37.9544ZM24.5008 53.4546C23.9479 51.3665 23.6705 48.7786 24.4647 46.2328C25.1659 43.9833 26.6287 42.0206 28.8328 40.3676L24.5008 53.4546Z" fill="url(#paint2_linear)"/>
<path d="M43.2552 12.0768C42.7992 11.5335 42.0753 11.2884 41.3893 11.446C41.0758 11.5164 33.6848 13.2244 30.2269 19.8154C27.8045 24.4304 27.949 30.1496 30.6544 36.8148C30.9452 37.5293 31.6386 37.9984 32.4101 38.0004C32.4121 38.0004 32.4121 38.0004 32.4139 38.0004C33.1834 38.0004 33.8787 37.5368 34.1733 36.8243L43.5594 14.0244C43.8272 13.3686 43.7112 12.6183 43.2552 12.0768ZM32.6686 30.4896C31.9884 27.0524 32.2885 24.0771 33.5748 21.6089C34.7529 19.3499 36.6071 17.8184 38.2982 16.8171L32.6686 30.4896Z" fill="url(#paint3_linear)"/>
<path d="M54.1098 24.934C49.2116 22.2626 43.4907 22.0404 38.8053 24.3413C34.3651 26.5244 31.3497 30.7006 30.5384 35.8021C30.4281 36.4936 30.7076 37.189 31.2642 37.6127C31.6004 37.8692 32.0052 38.0003 32.4138 38.0003C32.6816 38.0003 32.9515 37.9433 33.2042 37.8313L53.9902 28.3313C54.6457 28.0311 55.0732 27.387 55.0997 26.6687C55.1244 25.9504 54.7426 25.2778 54.1098 24.934ZM35.5223 32.5909C36.6111 30.4877 38.3019 28.8231 40.4813 27.7517C42.1038 26.9537 43.8993 26.5585 45.7328 26.5585C46.5535 26.5585 47.382 26.6364 48.2048 26.7941L35.5223 32.5909Z" fill="url(#paint4_linear)"/>
<path d="M56.9428 43.2327C55.6452 38.1463 52.0958 34.1886 47.2054 32.3742C41.9766 30.4324 36.041 31.2456 31.3271 34.546L33.5045 37.6601C37.1981 35.0741 41.8245 34.432 45.8831 35.9367C48.3606 36.8545 50.384 38.5037 51.7483 40.6505L37.6236 36.1894L36.4778 39.8127L54.5279 45.5127C54.716 45.5717 54.908 45.6002 55.0999 45.6002C55.5786 45.6002 56.048 45.4196 56.4071 45.0834C56.9088 44.6082 57.1138 43.9015 56.9428 43.2327Z" fill="url(#paint5_linear)"/>
<path d="M31.9828 36.9475L28.8193 39.0527C28.9296 39.2179 39.8317 55.9893 38.0059 81.5651L41.7964 81.8367C43.719 54.8967 32.4615 37.6658 31.9828 36.9475Z" fill="url(#paint6_linear)"/>
<path d="M37.62 34.96L34.5801 37.24C34.6903 37.3862 45.6 52.2519 45.6 79.8H49.4C49.4 50.9979 38.1007 35.6021 37.62 34.96Z" fill="url(#paint7_linear)"/>
<path d="M94.0195 11.6414C92.279 10.6762 90.398 10.0359 88.4297 9.74151C79.3441 8.36773 70.8834 14.6511 69.5229 23.7161C69.4185 24.4152 69.7091 25.1146 70.2811 25.5325C70.6135 25.7738 71.0069 25.8972 71.4021 25.8972C71.6891 25.8972 71.9759 25.8326 72.242 25.7035L93.94 15.0064C94.5746 14.6929 94.985 14.0546 95.0003 13.3476C95.015 12.6407 94.6389 11.9834 94.0195 11.6414ZM74.5521 20.3261C76.7181 16.1157 81.109 13.355 85.9558 13.355C86.5848 13.355 87.2232 13.4006 87.8653 13.4975C88.0002 13.5184 88.1352 13.5394 88.2681 13.5641L74.5521 20.3261Z" fill="url(#paint8_linear)"/>
<path d="M94.9868 32.074C94.3788 27.0068 90.9285 22.7147 85.7529 20.5906C80.4138 18.4018 74.4593 19.1353 70.2184 22.5114C69.6865 22.9369 69.4204 23.6153 69.5248 24.288C69.6292 24.9624 70.0872 25.5286 70.7238 25.772L92.4218 34.075C92.6423 34.1605 92.8721 34.2004 93.1001 34.2004C93.518 34.2004 93.9303 34.0637 94.2686 33.7994C94.7931 33.3888 95.0648 32.7353 94.9868 32.074ZM75.932 23.6971C78.552 22.8516 81.5275 22.9656 84.3089 24.1056C86.9251 25.1791 88.9506 26.9576 90.1267 29.1292L75.932 23.6971Z" fill="url(#paint9_linear)"/>
<path d="M83.8261 31.4606C81.8616 27.0888 77.8658 23.9671 71.9512 22.1792L70.853 25.8158C75.6544 27.2673 78.8502 29.6823 80.3493 32.994C81.5102 35.559 81.5026 38.3122 81.1644 40.5142L74.6037 28.0883L71.2407 29.8628L80.0186 46.4879C80.3493 47.1111 80.9972 47.5005 81.7001 47.5005C81.7173 47.5005 81.7344 47.5005 81.7496 47.5005C82.4734 47.4796 83.1234 47.0521 83.4253 46.3966C83.5713 46.0773 86.9913 38.5057 83.8261 31.4606Z" fill="url(#paint10_linear)"/>
<path d="M71.3964 7.42716C67.1403 1.08102 59.4605 0.0550253 59.1356 0.0151699C58.4118 -0.076119 57.7257 0.243169 57.325 0.837883C56.924 1.4326 56.8917 2.20009 57.2415 2.82531L69.5154 24.8462C69.8536 25.4523 70.4919 25.821 71.1742 25.821C71.2501 25.821 71.328 25.8172 71.4042 25.8058C72.1737 25.7128 72.8064 25.1637 73.0077 24.4169C74.8771 17.5255 74.3356 11.8086 71.3964 7.42716ZM70.243 18.3482L62.8653 5.11288C64.712 5.97544 66.7887 7.36637 68.2614 9.57401C69.8289 11.9281 70.4919 14.8674 70.243 18.3482Z" fill="url(#paint11_linear)"/>
<path d="M73.0015 23.3948C71.5707 18.4262 68.0672 14.6395 63.3912 13.0074C58.4758 11.2916 52.8328 12.1923 48.2996 15.4203C47.7124 15.8365 47.4123 16.549 47.5225 17.2615C47.6345 17.972 48.1361 18.5591 48.8221 18.7778L70.5943 25.7318C70.7863 25.7908 70.98 25.821 71.1739 25.821C71.6604 25.821 72.1391 25.6329 72.5 25.2833C73.0035 24.795 73.1972 24.0692 73.0015 23.3948ZM54.3587 16.5566C56.9313 15.7225 59.6294 15.7187 62.1372 16.5946C64.4306 17.3964 66.3115 18.8441 67.6528 20.8031L54.3587 16.5566Z" fill="url(#paint12_linear)"/>
<path d="M59.2347 25.1105C62.5009 23.4214 66.5307 23.6 70.2851 25.5987L72.0693 22.2433C67.2054 19.6518 61.8872 19.4655 57.4924 21.7303C53.0787 24.0045 50.1357 28.4583 49.4174 33.953C49.3299 34.6237 49.6055 35.2905 50.1412 35.7049C50.4774 35.9652 50.888 36.1001 51.3001 36.1001C51.5433 36.1001 51.7866 36.0544 52.024 35.9614L68.2879 29.3113L66.8478 25.7925L54.0609 31.0213C55.0984 28.3937 56.8899 26.319 59.2347 25.1105Z" fill="url(#paint13_linear)"/>
<path d="M76.3098 26.7864L72.8403 25.2361C66.2588 39.963 63.4106 56.2516 64.6058 72.3407L68.3943 72.0595C67.2468 56.5954 69.9845 40.9413 76.3098 26.7864Z" fill="url(#paint14_linear)"/>
<path d="M71.1415 23.9229L67.7861 22.135C59.5668 37.5477 55.8388 54.9042 57.0036 72.3272L60.7978 72.0745C59.6788 55.3584 63.2566 38.7086 71.1415 23.9229Z" fill="url(#paint15_linear)"/>
<path d="M114 87.3999H0V91.2H114V87.3999Z" fill="url(#paint16_linear)"/>
<path d="M95.0001 95.0002H41.8003V98.8003H95.0001V95.0002Z" fill="url(#paint17_linear)"/>
<path d="M38.0001 95.0002H17.1001V98.8003H38.0001V95.0002Z" fill="url(#paint18_linear)"/>
<path d="M66.4998 77.8999H62.6997V81.7H66.4998V77.8999Z" fill="url(#paint19_linear)"/>
<path d="M75.9998 79.8003H72.1997V83.6004H75.9998V79.8003Z" fill="url(#paint20_linear)"/>
<path d="M57.0003 79.8003H53.2002V83.6004H57.0003V79.8003Z" fill="url(#paint21_linear)"/>
<path d="M85.4999 102.6H55.1001V106.4H85.4999V102.6Z" fill="url(#paint22_linear)"/>
<path d="M51.3 102.6H26.6001V106.4H51.3V102.6Z" fill="url(#paint23_linear)"/>
<path d="M66.5001 110.2H45.6001V114H66.5001V110.2Z" fill="url(#paint24_linear)"/>
<path d="M56.9997 70.3018C53.7373 70.3055 50.4505 70.5431 47.23 71.0047L47.7715 74.7667C50.8134 74.3278 53.9199 74.1036 56.9997 74.0998C73.5582 74.0998 88.6023 80.6036 94.4353 90.282L97.6918 88.3193C91.0952 77.3753 75.1239 70.3018 56.9997 70.3018Z" fill="url(#paint25_linear)"/>
<path d="M39.3794 72.6904C28.9103 75.6809 20.5028 81.3771 16.3096 88.3198L19.5623 90.2825C23.2636 84.153 30.8673 79.0724 40.4223 76.346L39.3794 72.6904Z" fill="url(#paint26_linear)"/>
</g>
<defs>
<linearGradient id="paint0_linear" x1="20.9025" y1="23.7739" x2="20.9025" y2="38.1138" gradientUnits="userSpaceOnUse">
<stop stop-color="#1CF0FE"/>
<stop offset="0.494792" stop-color="#1EF3FE"/>
<stop offset="0.59375" stop-color="#3DE9FB"/>
<stop offset="0.59385" stop-color="#1ABBF3"/>
<stop offset="1" stop-color="#25E3FC"/>
</linearGradient>
<linearGradient id="paint1_linear" x1="21.8502" y1="32.5396" x2="21.8502" y2="49.4001" gradientUnits="userSpaceOnUse">
<stop stop-color="#1CF0FE"/>
<stop offset="0.494792" stop-color="#1EF3FE"/>
<stop offset="0.59375" stop-color="#3DE9FB"/>
<stop offset="0.59385" stop-color="#1ABBF3"/>
<stop offset="1" stop-color="#25E3FC"/>
</linearGradient>
<linearGradient id="paint2_linear" x1="26.6148" y1="34.4736" x2="26.6148" y2="60.8" gradientUnits="userSpaceOnUse">
<stop stop-color="#1CF0FE"/>
<stop offset="0.494792" stop-color="#1EF3FE"/>
<stop offset="0.59375" stop-color="#3DE9FB"/>
<stop offset="0.59385" stop-color="#1ABBF3"/>
<stop offset="1" stop-color="#25E3FC"/>
</linearGradient>
<linearGradient id="paint3_linear" x1="36.1066" y1="11.3989" x2="36.1066" y2="38.0004" gradientUnits="userSpaceOnUse">
<stop stop-color="#1CF0FE"/>
<stop offset="0.494792" stop-color="#1EF3FE"/>
<stop offset="0.59375" stop-color="#3DE9FB"/>
<stop offset="0.59385" stop-color="#1ABBF3"/>
<stop offset="1" stop-color="#25E3FC"/>
</linearGradient>
<linearGradient id="paint4_linear" x1="42.8078" y1="22.7605" x2="42.8078" y2="38.0003" gradientUnits="userSpaceOnUse">
<stop stop-color="#1CF0FE"/>
<stop offset="0.494792" stop-color="#1EF3FE"/>
<stop offset="0.59375" stop-color="#3DE9FB"/>
<stop offset="0.59385" stop-color="#1ABBF3"/>
<stop offset="1" stop-color="#25E3FC"/>
</linearGradient>
<linearGradient id="paint5_linear" x1="44.1646" y1="31.3357" x2="44.1646" y2="45.6002" gradientUnits="userSpaceOnUse">
<stop stop-color="#1CF0FE"/>
<stop offset="0.494792" stop-color="#1EF3FE"/>
<stop offset="0.59375" stop-color="#3DE9FB"/>
<stop offset="0.59385" stop-color="#1ABBF3"/>
<stop offset="1" stop-color="#25E3FC"/>
</linearGradient>
<linearGradient id="paint6_linear" x1="35.4182" y1="36.9475" x2="35.4182" y2="81.8367" gradientUnits="userSpaceOnUse">
<stop stop-color="#1CF0FE"/>
<stop offset="0.494792" stop-color="#1EF3FE"/>
<stop offset="0.59375" stop-color="#3DE9FB"/>
<stop offset="0.59385" stop-color="#1ABBF3"/>
<stop offset="1" stop-color="#25E3FC"/>
</linearGradient>
<linearGradient id="paint7_linear" x1="41.9901" y1="34.96" x2="41.9901" y2="79.8" gradientUnits="userSpaceOnUse">
<stop stop-color="#1CF0FE"/>
<stop offset="0.494792" stop-color="#1EF3FE"/>
<stop offset="0.59375" stop-color="#3DE9FB"/>
<stop offset="0.59385" stop-color="#1ABBF3"/>
<stop offset="1" stop-color="#25E3FC"/>
</linearGradient>
<linearGradient id="paint8_linear" x1="82.2513" y1="9.55298" x2="82.2513" y2="25.8972" gradientUnits="userSpaceOnUse">
<stop stop-color="#1CF0FE"/>
<stop offset="0.494792" stop-color="#1EF3FE"/>
<stop offset="0.59375" stop-color="#3DE9FB"/>
<stop offset="0.59385" stop-color="#1ABBF3"/>
<stop offset="1" stop-color="#25E3FC"/>
</linearGradient>
<linearGradient id="paint9_linear" x1="82.2512" y1="19.3459" x2="82.2512" y2="34.2004" gradientUnits="userSpaceOnUse">
<stop stop-color="#1CF0FE"/>
<stop offset="0.494792" stop-color="#1EF3FE"/>
<stop offset="0.59375" stop-color="#3DE9FB"/>
<stop offset="0.59385" stop-color="#1ABBF3"/>
<stop offset="1" stop-color="#25E3FC"/>
</linearGradient>
<linearGradient id="paint10_linear" x1="78.0091" y1="22.1792" x2="78.0091" y2="47.5005" gradientUnits="userSpaceOnUse">
<stop stop-color="#1CF0FE"/>
<stop offset="0.494792" stop-color="#1EF3FE"/>
<stop offset="0.59375" stop-color="#3DE9FB"/>
<stop offset="0.59385" stop-color="#1ABBF3"/>
<stop offset="1" stop-color="#25E3FC"/>
</linearGradient>
<linearGradient id="paint11_linear" x1="65.5478" y1="-0.000244141" x2="65.5478" y2="25.821" gradientUnits="userSpaceOnUse">
<stop stop-color="#1CF0FE"/>
<stop offset="0.494792" stop-color="#1EF3FE"/>
<stop offset="0.59375" stop-color="#3DE9FB"/>
<stop offset="0.59385" stop-color="#1ABBF3"/>
<stop offset="1" stop-color="#25E3FC"/>
</linearGradient>
<linearGradient id="paint12_linear" x1="60.2883" y1="12.1531" x2="60.2883" y2="25.821" gradientUnits="userSpaceOnUse">
<stop stop-color="#1CF0FE"/>
<stop offset="0.494792" stop-color="#1EF3FE"/>
<stop offset="0.59375" stop-color="#3DE9FB"/>
<stop offset="0.59385" stop-color="#1ABBF3"/>
<stop offset="1" stop-color="#25E3FC"/>
</linearGradient>
<linearGradient id="paint13_linear" x1="60.7353" y1="20.1562" x2="60.7353" y2="36.1001" gradientUnits="userSpaceOnUse">
<stop stop-color="#1CF0FE"/>
<stop offset="0.494792" stop-color="#1EF3FE"/>
<stop offset="0.59375" stop-color="#3DE9FB"/>
<stop offset="0.59385" stop-color="#1ABBF3"/>
<stop offset="1" stop-color="#25E3FC"/>
</linearGradient>
<linearGradient id="paint14_linear" x1="70.3248" y1="25.2361" x2="70.3248" y2="72.3407" gradientUnits="userSpaceOnUse">
<stop stop-color="#1CF0FE"/>
<stop offset="0.494792" stop-color="#1EF3FE"/>
<stop offset="0.59375" stop-color="#3DE9FB"/>
<stop offset="0.59385" stop-color="#1ABBF3"/>
<stop offset="1" stop-color="#25E3FC"/>
</linearGradient>
<linearGradient id="paint15_linear" x1="63.9682" y1="22.135" x2="63.9682" y2="72.3272" gradientUnits="userSpaceOnUse">
<stop stop-color="#1CF0FE"/>
<stop offset="0.494792" stop-color="#1EF3FE"/>
<stop offset="0.59375" stop-color="#3DE9FB"/>
<stop offset="0.59385" stop-color="#1ABBF3"/>
<stop offset="1" stop-color="#25E3FC"/>
</linearGradient>
<linearGradient id="paint16_linear" x1="56.9999" y1="87.3999" x2="56.9999" y2="91.2" gradientUnits="userSpaceOnUse">
<stop stop-color="#1CF0FE"/>
<stop offset="0.494792" stop-color="#1EF3FE"/>
<stop offset="0.59375" stop-color="#3DE9FB"/>
<stop offset="0.59385" stop-color="#1ABBF3"/>
<stop offset="1" stop-color="#25E3FC"/>
</linearGradient>
<linearGradient id="paint17_linear" x1="68.4002" y1="95.0002" x2="68.4002" y2="98.8003" gradientUnits="userSpaceOnUse">
<stop stop-color="#1CF0FE"/>
<stop offset="0.494792" stop-color="#1EF3FE"/>
<stop offset="0.59375" stop-color="#3DE9FB"/>
<stop offset="0.59385" stop-color="#1ABBF3"/>
<stop offset="1" stop-color="#25E3FC"/>
</linearGradient>
<linearGradient id="paint18_linear" x1="27.5501" y1="95.0002" x2="27.5501" y2="98.8003" gradientUnits="userSpaceOnUse">
<stop stop-color="#1CF0FE"/>
<stop offset="0.494792" stop-color="#1EF3FE"/>
<stop offset="0.59375" stop-color="#3DE9FB"/>
<stop offset="0.59385" stop-color="#1ABBF3"/>
<stop offset="1" stop-color="#25E3FC"/>
</linearGradient>
<linearGradient id="paint19_linear" x1="64.5997" y1="77.8999" x2="64.5997" y2="81.7" gradientUnits="userSpaceOnUse">
<stop stop-color="#1CF0FE"/>
<stop offset="0.494792" stop-color="#1EF3FE"/>
<stop offset="0.59375" stop-color="#3DE9FB"/>
<stop offset="0.59385" stop-color="#1ABBF3"/>
<stop offset="1" stop-color="#25E3FC"/>
</linearGradient>
<linearGradient id="paint20_linear" x1="74.0997" y1="79.8003" x2="74.0997" y2="83.6004" gradientUnits="userSpaceOnUse">
<stop stop-color="#1CF0FE"/>
<stop offset="0.494792" stop-color="#1EF3FE"/>
<stop offset="0.59375" stop-color="#3DE9FB"/>
<stop offset="0.59385" stop-color="#1ABBF3"/>
<stop offset="1" stop-color="#25E3FC"/>
</linearGradient>
<linearGradient id="paint21_linear" x1="55.1002" y1="79.8003" x2="55.1002" y2="83.6004" gradientUnits="userSpaceOnUse">
<stop stop-color="#1CF0FE"/>
<stop offset="0.494792" stop-color="#1EF3FE"/>
<stop offset="0.59375" stop-color="#3DE9FB"/>
<stop offset="0.59385" stop-color="#1ABBF3"/>
<stop offset="1" stop-color="#25E3FC"/>
</linearGradient>
<linearGradient id="paint22_linear" x1="70.3" y1="102.6" x2="70.3" y2="106.4" gradientUnits="userSpaceOnUse">
<stop stop-color="#1CF0FE"/>
<stop offset="0.494792" stop-color="#1EF3FE"/>
<stop offset="0.59375" stop-color="#3DE9FB"/>
<stop offset="0.59385" stop-color="#1ABBF3"/>
<stop offset="1" stop-color="#25E3FC"/>
</linearGradient>
<linearGradient id="paint23_linear" x1="38.95" y1="102.6" x2="38.95" y2="106.4" gradientUnits="userSpaceOnUse">
<stop stop-color="#1CF0FE"/>
<stop offset="0.494792" stop-color="#1EF3FE"/>
<stop offset="0.59375" stop-color="#3DE9FB"/>
<stop offset="0.59385" stop-color="#1ABBF3"/>
<stop offset="1" stop-color="#25E3FC"/>
</linearGradient>
<linearGradient id="paint24_linear" x1="56.0501" y1="110.2" x2="56.0501" y2="114" gradientUnits="userSpaceOnUse">
<stop stop-color="#1CF0FE"/>
<stop offset="0.494792" stop-color="#1EF3FE"/>
<stop offset="0.59375" stop-color="#3DE9FB"/>
<stop offset="0.59385" stop-color="#1ABBF3"/>
<stop offset="1" stop-color="#25E3FC"/>
</linearGradient>
<linearGradient id="paint25_linear" x1="72.4609" y1="70.3018" x2="72.4609" y2="90.282" gradientUnits="userSpaceOnUse">
<stop stop-color="#1CF0FE"/>
<stop offset="0.494792" stop-color="#1EF3FE"/>
<stop offset="0.59375" stop-color="#3DE9FB"/>
<stop offset="0.59385" stop-color="#1ABBF3"/>
<stop offset="1" stop-color="#25E3FC"/>
</linearGradient>
<linearGradient id="paint26_linear" x1="28.3659" y1="72.6904" x2="28.3659" y2="90.2825" gradientUnits="userSpaceOnUse">
<stop stop-color="#1CF0FE"/>
<stop offset="0.494792" stop-color="#1EF3FE"/>
<stop offset="0.59375" stop-color="#3DE9FB"/>
<stop offset="0.59385" stop-color="#1ABBF3"/>
<stop offset="1" stop-color="#25E3FC"/>
</linearGradient>
<clipPath id="clip0">
<rect width="114" height="114" fill="white"/>
</clipPath>
</defs>
</svg>
