<svg width="108" height="114" viewBox="0 0 108 114" fill="none" xmlns="http://www.w3.org/2000/svg">
<path d="M87.7499 41.5304C88.0543 41.6807 88.3863 41.7557 88.7187 41.7557C89.0669 41.7557 89.4152 41.6733 89.7311 41.5088C91.5055 40.5839 97.2994 37.2046 97.366 32.5551C97.4609 29.7683 94.9322 26.9019 91.7963 26.9531C90.6959 26.9531 89.6358 27.2683 88.7294 27.8548C87.8299 27.2679 86.7823 26.9531 85.695 26.9531C82.7987 26.9223 80.1513 29.466 80.0857 32.4972C79.9881 37.3224 85.9275 40.6313 87.7499 41.5304V41.5304ZM85.679 30.2929H85.6946C86.2633 30.2929 86.8074 30.5109 87.2285 30.9079C87.2287 30.9081 87.2289 30.9083 87.2291 30.9086C88.0645 31.6952 89.3793 31.6956 90.2216 30.9099C90.6487 30.512 91.2076 30.2929 91.7958 30.2929C92.6902 30.3078 93.9683 31.0201 94.0264 32.507C93.9948 34.7077 90.8767 37.0385 88.7051 38.2656C86.5102 37.0841 83.3792 34.8084 83.4244 32.5647C83.4489 31.3628 84.5025 30.3012 85.679 30.2929V30.2929Z" fill="url(#paint0_linear)"/>
<path d="M18.2513 41.5306C18.5557 41.6807 18.8874 41.7557 19.2196 41.7557C19.5679 41.7557 19.9161 41.6733 20.232 41.5088C22.0062 40.5839 27.8001 37.2046 27.8669 32.5549C27.9616 29.7686 25.4326 26.9019 22.297 26.9531C21.1966 26.9531 20.1368 27.2683 19.2301 27.8548C18.3199 27.2608 17.2547 26.9448 16.1563 26.9531C13.1462 26.9744 10.6474 29.4617 10.5861 32.4972C10.4891 37.3224 16.4282 40.6313 18.2513 41.5306V41.5306ZM16.1802 30.2929H16.1957C16.7644 30.2929 17.3086 30.5109 17.7294 30.9079C17.7296 30.9081 17.7298 30.9083 17.7301 30.9086C18.5652 31.695 19.8798 31.6959 20.7226 30.9099C21.1494 30.512 21.7085 30.2929 22.2967 30.2929C23.1911 30.3078 24.4692 31.0201 24.5273 32.507C24.4957 34.7077 21.3776 37.0385 19.2058 38.2656C17.0111 37.0841 13.8801 34.8084 13.9255 32.5647C13.9498 31.3626 15.0034 30.3012 16.1802 30.2929Z" fill="url(#paint1_linear)"/>
<path d="M7.69211 46.6841H13.0648C13.2563 46.6841 13.4366 46.7587 13.5722 46.8939L17.2091 50.5236C17.7655 51.0787 18.4987 51.3566 19.2322 51.3566C19.9589 51.3566 20.6857 51.0838 21.2405 50.5376L24.9478 46.8903C25.0829 46.7571 25.2619 46.6839 25.4516 46.6839H30.76C34.0513 46.6839 36.7289 44.0064 36.7289 40.7149V34.4538C37.539 34.7468 38.4118 34.9074 39.3215 34.9074H46.5214C47.0707 34.9074 47.5939 35.1441 47.9568 35.556L51.597 39.6914C52.2278 40.4081 53.1374 40.8211 54.0921 40.8249H54.1055C55.0553 40.8249 55.9624 40.4197 56.5961 39.7114L60.324 35.5446C60.6863 35.1396 61.2058 34.9074 61.7493 34.9074H68.8691C69.6903 34.9074 70.4807 34.7756 71.2226 34.5349V40.7151C71.2226 44.0064 73.9001 46.6841 77.1916 46.6841H82.5643C82.7558 46.6841 82.9361 46.7587 83.0717 46.8939L86.7086 50.5236C87.265 51.0787 87.9984 51.3566 88.7319 51.3566C89.4584 51.3566 90.1851 51.0838 90.7402 50.5376L94.4477 46.8901C94.5828 46.7571 94.7618 46.6839 94.9515 46.6839H100.26C103.551 46.6839 106.229 44.0064 106.229 40.7149V25.2192C106.229 21.9279 103.551 19.2502 100.26 19.2502H76.5096V7.64045C76.5096 3.42757 73.082 0 68.8689 0H55.2646C54.3422 0 53.5947 0.747457 53.5947 1.66992C53.5947 2.59239 54.3422 3.33984 55.2646 3.33984H68.8689C71.2402 3.33984 73.1695 5.26916 73.1695 7.64045V27.2667C73.1695 29.6382 71.2402 31.5675 68.8689 31.5675H61.749C60.2566 31.5675 58.8298 32.2054 57.8345 33.3176L54.1039 37.4846L50.4639 33.3492C49.4671 32.217 48.0301 31.5675 46.5214 31.5675H39.3215C36.95 31.5675 35.0207 29.6382 35.0207 27.2667V7.64045C35.0207 5.26916 36.95 3.33984 39.3215 3.33984H47.4717C48.3939 3.33984 49.1416 2.59239 49.1416 1.66992C49.1416 0.747457 48.3939 0 47.4717 0H39.3215C35.1084 0 31.6809 3.42757 31.6809 7.64045V19.2506H7.69211C4.40081 19.2506 1.72314 21.9281 1.72314 25.2196V40.7154C1.72314 44.0067 4.40081 46.6841 7.69211 46.6841V46.6841ZM100.26 22.5905C101.709 22.5905 102.889 23.7699 102.889 25.2196V40.7154C102.889 42.1651 101.709 43.3445 100.26 43.3445H94.9513C93.8797 43.3445 92.8688 43.7582 92.1053 44.5097L88.7336 47.8263L85.4308 44.5299C84.6648 43.7653 83.6466 43.3443 82.5641 43.3443H77.1914C75.7417 43.3443 74.5622 42.1649 74.5622 40.7151V32.3551C75.7719 31.0029 76.5094 29.2194 76.5094 27.2665V22.5903H100.26V22.5905ZM5.06299 25.2196C5.06299 23.7699 6.2424 22.5905 7.69211 22.5905H31.6809V27.2667C31.6809 29.0876 32.3221 30.7609 33.3891 32.075V40.7151C33.3891 42.1649 32.2097 43.3443 30.76 43.3443H25.4516C24.3802 43.3443 23.3696 43.758 22.6056 44.5094L19.2342 47.8261L15.9313 44.5297C15.1651 43.7651 14.1471 43.344 13.0646 43.344H7.69189C6.24218 43.344 5.06277 42.1646 5.06277 40.7149V25.2196H5.06299Z" fill="url(#paint2_linear)"/>
<path d="M41.7316 15.7496C41.5929 22.6266 50.3164 27.4698 52.9925 28.7899C53.3356 28.9593 53.7101 29.044 54.0846 29.044C54.4771 29.044 54.8692 28.9511 55.2255 28.7656C57.8368 27.4048 66.3639 22.4475 66.4594 15.8073C66.6008 11.9052 63.0414 8.03299 58.8058 8.11782C57.0893 8.11782 55.445 8.67469 54.0986 9.70002C52.7478 8.66266 51.1057 8.11137 49.3917 8.11782C45.2523 8.14699 41.816 11.5706 41.7316 15.7496V15.7496ZM49.4157 11.4577C49.426 11.4574 49.4362 11.4574 49.4464 11.4574C50.547 11.4574 51.5989 11.8783 52.4109 12.6438V12.644C53.3509 13.5299 54.8321 13.5297 55.7828 12.6435C56.6035 11.8783 57.6765 11.4577 58.8058 11.4577C60.8562 11.422 63.1765 13.2783 63.12 15.7594C63.0668 19.4562 58.3017 23.3128 54.0744 25.5957C49.7844 23.3969 44.9944 19.6031 45.0706 15.8171C45.1182 13.4703 47.1077 11.4739 49.4157 11.4577V11.4577Z" fill="url(#paint3_linear)"/>
<path d="M106.966 101.15V76.826C106.966 66.8147 98.8209 58.6699 88.8096 58.6699C85.9322 58.6699 83.067 59.3606 80.5239 60.6671C79.7034 61.0886 79.3801 62.0953 79.8016 62.9155C80.2231 63.736 81.2299 64.0593 82.05 63.6378C84.1527 62.5575 86.4269 62.0098 88.8096 62.0098C96.9793 62.0098 103.626 68.6563 103.626 76.826V98.2043C103.58 98.1845 103.537 98.1616 103.491 98.1426H103.491L95.0807 94.677V91.4124C98.2945 88.2035 100.766 83.0575 100.766 78.3236C100.766 72.2268 98.0514 67.4363 93.5047 65.5086C93.0917 65.3336 92.6255 65.3327 92.2104 65.505C91.9228 65.6422 91.3971 65.959 91.2212 66.6896C90.2145 71.2838 86.5926 74.8882 81.9936 75.8723L78.1715 76.6904C77.5296 76.8144 76.8589 77.5848 76.8552 78.6576C76.9707 83.3456 79.4006 88.3148 82.5389 91.4331V94.677L75.8953 97.4146C75.3596 96.7533 74.7199 96.1737 73.9938 95.6972V76.8258C73.9938 73.7647 74.9189 70.8272 76.6692 68.3308C77.1987 67.5755 77.0159 66.5344 76.2607 66.0049C75.5052 65.4754 74.4643 65.6584 73.9348 66.4135C71.7884 69.4745 70.6542 73.0751 70.6542 76.826V94.1515L61.5155 90.386V84.0423C65.6992 80.6534 68.178 74.5567 68.6391 68.5588C70.8285 66.9877 72.107 63.8102 72.8137 61.2665C73.2976 59.5249 73.0014 57.6657 72.0008 56.1657C71.3685 55.2174 70.495 54.4764 69.4857 54.0077C69.5859 53.4511 69.6115 52.8795 69.5605 52.3053C69.2875 49.2433 66.867 46.8271 63.8048 46.5599C62.6606 46.4603 61.5284 46.6721 60.5206 47.1497C59.2894 44.7817 56.8154 43.1953 53.9997 43.1953C52.7531 43.1953 51.5365 43.5124 50.4593 44.1053C49.3551 43.2316 47.9887 42.75 46.5407 42.75C43.7239 42.75 41.3304 44.5573 40.5041 47.1303C36.6185 47.8644 33.738 51.2414 33.738 55.3301C33.738 57.193 34.3541 58.9821 35.4861 60.4414C35.4562 61.379 35.4594 63.1079 35.7704 64.7667C36.3551 67.8848 38.424 69.5188 39.6693 70.2394C39.8181 71.329 40.0291 72.414 40.307 73.4737C40.5027 74.1031 41.3159 74.9452 42.3457 74.6658C43.2378 74.432 43.7716 73.5193 43.5378 72.6271C43.2407 71.4931 43.0252 70.326 42.8976 69.1581C42.8239 68.5124 43.0651 68.2286 44.5293 67.5141C45.5199 67.04 46.7845 66.4351 47.571 65.1902C50.8981 65.5609 54.6154 63.7089 56.422 60.8691C57.5604 61.6101 59.2827 62.2745 61.0686 62.0953C61.9205 63.9153 63.1226 64.744 64.0477 65.3817C65.0426 66.0672 65.3489 66.2805 65.3547 67.5408C65.009 75.3451 60.6912 83.4041 54.048 83.4041C50.3769 83.4041 47.9121 81.0714 46.4909 79.1147C45.9487 78.3683 44.9044 78.2024 44.1583 78.7448C43.4122 79.287 43.2465 80.331 43.7885 81.0774C44.6392 82.2485 45.5757 83.2443 46.585 84.0599V90.3862C43.8341 91.5195 38.2185 93.8336 35.5186 94.946C34.1786 95.4979 33.0435 96.3679 32.1792 97.4455L25.4608 94.6772V89.5425C27.8142 87.454 29.8226 84.3985 30.882 81.0491C31.3598 80.9803 31.7882 80.7096 32.0512 80.2985C33.7872 77.5866 37.1219 69.3628 31.7757 63.9491C29.6745 61.8216 26.7185 61.3743 24.2796 61.841C24.1771 61.6179 24.0609 61.403 23.9298 61.198C21.6745 57.6744 15.8456 57.1803 10.6595 60.0735C9.85411 60.5229 9.56532 61.54 10.0146 62.3453C10.464 63.1509 11.4811 63.4399 12.2866 62.9901C16.1764 60.8208 19.993 61.2425 21.117 62.9984C21.5823 63.7253 21.6121 64.8426 21.1989 66.0646C20.5852 67.8788 18.8267 70.2189 15.7313 71.3455C12.1642 72.6438 9.69847 74.6829 8.18418 76.2856C7.55607 74.0833 7.19448 70.9363 8.05682 68.0765C8.32312 67.1934 7.82304 66.2618 6.93998 65.9955C6.05648 65.7295 5.12533 66.2291 4.85904 67.1124C3.31825 72.2228 4.82786 78.0838 6.33369 80.4359C6.60511 80.8598 7.05064 81.1344 7.54271 81.1929C8.61458 84.4751 10.6018 87.4687 12.9187 89.5287V94.677C12.7658 94.7442 4.57715 98.1061 4.41484 98.1854C1.74586 99.329 0.0253906 101.928 0.0253906 104.839V110.101C0.0253906 112.251 1.77436 114 3.9241 114H104.075C106.225 114 107.974 112.251 107.974 110.101V104.838C107.974 103.507 107.611 102.242 106.966 101.15V101.15ZM63.7496 59.7347C63.6269 59.2967 63.331 58.9278 62.9302 58.7129C62.5295 58.498 62.0585 58.4562 61.6261 58.5964C61.2481 58.7191 60.8546 58.7812 60.4567 58.7812C59.1996 58.7812 58.0271 58.1587 57.3202 57.1158C56.963 56.589 56.3381 56.3109 55.7062 56.3988C55.0754 56.4872 54.5499 56.9267 54.3513 57.5322C53.4943 60.1437 51.0713 61.8984 48.322 61.8984C48.0123 61.8984 47.2626 61.7831 46.854 61.7054C45.9658 61.5362 45.1048 62.1037 44.91 62.9863C44.7659 63.6401 44.2701 63.9355 43.0878 64.5011C42.2058 64.923 41.0433 65.479 40.2905 66.5444C39.766 66.0091 39.2561 65.234 39.053 64.1515C38.6883 62.2066 38.8493 60.0172 38.8508 59.9967C38.8871 59.5323 38.7277 59.0738 38.4113 58.732C37.5514 57.8033 37.0776 56.595 37.0776 55.3303C37.0776 52.6041 39.2118 50.4054 41.9362 50.325C42.779 50.3 43.471 49.6508 43.5496 48.8111C43.6947 47.2597 44.9806 46.0898 46.5407 46.0898C47.4841 46.0898 48.3556 46.5245 48.9318 47.2822C49.2119 47.6507 49.6325 47.8865 50.0932 47.933C50.5537 47.9795 51.013 47.8328 51.3615 47.5278C52.0922 46.8876 53.0292 46.5352 53.9997 46.5352C56.0401 46.5352 57.7517 48.0615 57.9806 50.0854C58.0558 50.7505 58.521 51.3065 59.1625 51.4979C59.8053 51.6903 60.4979 51.479 60.9252 50.964C61.5656 50.1918 62.5079 49.7989 63.5145 49.887C64.9377 50.0113 66.1067 51.1782 66.2333 52.6019C66.2872 53.2057 66.1637 53.8013 65.8762 54.3246C65.6068 54.8146 65.6006 55.4071 65.8597 55.9028C66.1189 56.3984 66.609 56.7315 67.1652 56.7896C67.8997 56.8519 68.6391 57.2166 69.2218 58.0187C69.6827 58.7098 69.819 59.5677 69.5952 60.3724C69.1265 62.0601 68.5385 63.4686 67.9008 64.477C67.3395 63.5937 66.5773 63.0685 65.943 62.6314C64.986 61.9717 64.2299 61.4505 63.7496 59.7347V59.7347ZM82.6921 79.1387C87.831 78.039 92.0152 74.3794 93.8449 69.5522C96.1158 71.3248 97.4255 74.4652 97.4255 78.3238C97.4255 84.3164 92.2104 91.2492 88.808 91.2492C85.655 91.2492 80.9462 85.3475 80.272 79.6568L82.6921 79.1387ZM51.084 110.66C50.4711 104.909 48.3031 99.3548 44.8668 94.7064L47.8617 93.4724C49.5582 94.9758 51.7527 95.8219 54.0483 95.8221H54.0498C56.3503 95.8221 58.5499 94.9727 60.2397 93.4729L63.1872 94.6875C59.7309 99.3347 57.5426 104.9 56.9181 110.66H51.084ZM66.387 96.0058L71.309 98.034C73.1958 98.8113 74.4146 100.632 74.4146 102.672V110.66H60.2846C60.9297 105.336 63.0585 100.213 66.387 96.0058V96.0058ZM54.048 86.7438C55.5262 86.7438 56.9034 86.4757 58.1752 85.9892V90.8373C57.0666 91.8889 55.593 92.4821 54.05 92.4821C54.0498 92.4821 54.0494 92.4821 54.0491 92.4821C52.5037 92.4818 51.0279 91.8864 49.9251 90.8386V85.9932C51.2272 86.4875 52.6066 86.7438 54.048 86.7438ZM30.3456 110.66H27.4333L30.3456 107.279V110.66ZM30.3654 102.139L23.0251 110.66H15.4259L7.77027 100.411L14.2084 97.7583C15.5942 98.9204 17.3532 99.5696 19.1885 99.5701H19.1899C21.0248 99.5701 22.7833 98.9213 24.1709 97.7581L30.6544 100.43C30.5015 100.982 30.4024 101.553 30.3654 102.139V102.139ZM29.3995 66.2961C32.3063 69.2396 31.391 73.7039 30.2447 76.5013C29.1493 75.415 27.5762 74.0223 25.6712 72.803C24.4746 72.0371 23.5063 71.0202 22.922 69.9357C23.5368 69.0677 24.0271 68.1272 24.3626 67.1351C24.5884 66.4673 24.7295 65.802 24.7892 65.1546C26.1781 64.8702 28.1017 64.9822 29.3995 66.2961V66.2961ZM10.3544 78.8528C11.5394 77.5322 13.6589 75.6546 16.8736 74.4845C18.2235 73.9931 19.4626 73.2947 20.5427 72.4381C21.379 73.656 22.5132 74.7468 23.8705 75.6158C25.5943 76.7193 27.0265 78.0074 27.9924 78.9753C26.7043 84.4584 22.2142 89.0226 19.1881 89.0226C16.1604 89.0224 11.6057 84.3805 10.3544 78.8528V78.8528ZM19.1883 92.3623C20.1526 92.3623 21.1419 92.1347 22.1209 91.7183V95.1172C21.318 95.8301 20.2773 96.23 19.1899 96.23C19.1896 96.23 19.1894 96.23 19.189 96.23C18.1037 96.2298 17.0651 95.8312 16.2588 95.1161V91.7132C17.2383 92.1323 18.2269 92.3623 19.1883 92.3623ZM3.36546 110.101V104.839C3.36546 103.683 3.86955 102.62 4.70874 101.893L11.2571 110.66H3.92432C3.61617 110.66 3.36546 110.409 3.36546 110.101ZM33.6854 102.672C33.6854 100.632 34.9045 98.8111 36.7911 98.034L41.6717 96.023C44.9792 100.233 47.086 105.346 47.7186 110.66H33.6857V102.672H33.6854ZM77.7545 110.66V102.672C77.7545 101.887 77.6414 101.122 77.4356 100.392L82.5518 98.284C82.6166 102.491 83.0063 106.913 85.3468 110.66H77.7545ZM85.8785 95.7918V93.8645C86.8535 94.3281 87.8421 94.5891 88.808 94.5891C89.7746 94.5891 90.7643 94.3294 91.7406 93.8614C91.7408 93.8656 91.7402 95.6262 91.7408 95.7996C91.7408 100.811 91.7393 105.983 88.8098 109.793C85.8799 105.989 85.8785 100.812 85.8785 95.7954C85.8787 95.7941 85.8785 95.793 85.8785 95.7918V95.7918ZM104.634 110.101C104.634 110.409 104.383 110.66 104.075 110.66H92.2712C94.6129 106.909 95.0025 102.49 95.0676 98.2843L102.218 101.231H102.218C103.686 101.835 104.634 103.251 104.634 104.838V110.101Z" fill="url(#paint4_linear)"/>
<defs>
<linearGradient id="paint0_linear" x1="88.7265" y1="26.9524" x2="88.7265" y2="41.7557" gradientUnits="userSpaceOnUse">
<stop stop-color="#1CF0FE"/>
<stop offset="0.494792" stop-color="#1EF3FE"/>
<stop offset="0.59375" stop-color="#3DE9FB"/>
<stop offset="0.59385" stop-color="#1ABBF3"/>
<stop offset="1" stop-color="#25E3FC"/>
</linearGradient>
<linearGradient id="paint1_linear" x1="19.2272" y1="26.9524" x2="19.2272" y2="41.7557" gradientUnits="userSpaceOnUse">
<stop stop-color="#1CF0FE"/>
<stop offset="0.494792" stop-color="#1EF3FE"/>
<stop offset="0.59375" stop-color="#3DE9FB"/>
<stop offset="0.59385" stop-color="#1ABBF3"/>
<stop offset="1" stop-color="#25E3FC"/>
</linearGradient>
<linearGradient id="paint2_linear" x1="53.9759" y1="0" x2="53.9759" y2="51.3566" gradientUnits="userSpaceOnUse">
<stop stop-color="#1CF0FE"/>
<stop offset="0.494792" stop-color="#1EF3FE"/>
<stop offset="0.59375" stop-color="#3DE9FB"/>
<stop offset="0.59385" stop-color="#1ABBF3"/>
<stop offset="1" stop-color="#25E3FC"/>
</linearGradient>
<linearGradient id="paint3_linear" x1="54.0967" y1="8.11646" x2="54.0967" y2="29.044" gradientUnits="userSpaceOnUse">
<stop stop-color="#1CF0FE"/>
<stop offset="0.494792" stop-color="#1EF3FE"/>
<stop offset="0.59375" stop-color="#3DE9FB"/>
<stop offset="0.59385" stop-color="#1ABBF3"/>
<stop offset="1" stop-color="#25E3FC"/>
</linearGradient>
<linearGradient id="paint4_linear" x1="53.9995" y1="42.75" x2="53.9995" y2="114" gradientUnits="userSpaceOnUse">
<stop stop-color="#1CF0FE"/>
<stop offset="0.494792" stop-color="#1EF3FE"/>
<stop offset="0.59375" stop-color="#3DE9FB"/>
<stop offset="0.59385" stop-color="#1ABBF3"/>
<stop offset="1" stop-color="#25E3FC"/>
</linearGradient>
</defs>
</svg>
