<svg width="92" height="114" viewBox="0 0 92 114" fill="none" xmlns="http://www.w3.org/2000/svg">
<path d="M50.063 48.9315C53.4943 52.3626 59.2586 52.3934 62.7265 49.0006C66.2616 45.5419 66.2935 39.6954 62.7964 36.1981L55.1637 28.5654C51.7156 25.1176 46.0554 25.0665 42.5459 28.4517C38.9691 31.902 38.915 37.7835 42.43 41.2988L50.063 48.9315ZM45.6394 31.6587C47.3914 29.9689 50.2916 29.9941 52.0131 31.7162L59.6458 39.349C61.412 41.115 61.3958 44.0691 59.6106 45.8159C57.8373 47.5512 54.9676 47.5349 53.2138 45.7809L45.5811 38.1482C43.8059 36.3732 43.8329 33.4013 45.6394 31.6587V31.6587Z" fill="url(#paint0_linear)"/>
<path d="M86.5131 70.2766C80.003 63.7671 69.4114 63.7673 62.9019 70.2766L27.4764 105.702C22.4215 110.757 13.9544 110.757 8.89922 105.702C3.83669 100.64 3.83647 92.1876 8.89922 87.125L12.8643 83.16L16.6712 86.9669C17.4684 87.764 18.7821 87.8322 19.6572 87.1157L49.4921 62.7051L52.1911 65.4041C54.3909 67.6034 58.0697 67.6041 60.2697 65.4041L79.6017 46.0719C81.8287 43.8447 81.8287 40.2207 79.6017 37.9935L76.2849 34.677L77.3708 34.462C80.4534 33.8518 83.2572 32.3549 85.4788 30.1331L86.5775 29.0345H86.5777C92.7406 22.8714 92.7404 12.8437 86.5775 6.68112L84.466 4.56935C78.3726 -1.52355 68.2057 -1.52399 62.1123 4.56935L61.0136 5.66812C58.7915 7.89016 57.2949 10.6939 56.6849 13.7761L56.4699 14.8622L53.1531 11.5454C50.9264 9.31843 47.3024 9.3182 45.0748 11.5454L25.7427 30.8776C23.5158 33.1048 23.5158 36.7286 25.7427 38.9557L28.4607 41.6737L4.21653 71.6949C3.50073 72.5811 3.5689 73.8643 4.37426 74.6699L9.71371 80.0093L5.74861 83.9744C-1.11022 90.8335 -1.11022 101.994 5.74861 108.853C12.5199 115.623 23.856 115.624 30.6273 108.853L66.0527 73.4274C70.8252 68.6552 78.5901 68.655 83.3625 73.4274C88.135 78.1997 88.135 85.965 83.3625 90.7373L70.8348 103.265C69.9648 104.135 69.9648 105.546 70.8348 106.416C71.705 107.286 73.1152 107.286 73.9856 106.416L86.5134 93.8879C93.0229 87.3784 93.0229 76.7863 86.5131 70.2766V70.2766ZM60.2619 18.6542L61.0559 14.6414C61.4939 12.428 62.5688 10.4147 64.1644 8.81917L65.2632 7.7204C69.6382 3.34538 76.9401 3.34538 81.3154 7.7204L83.4269 9.83216C87.8525 14.2578 87.8527 21.4588 83.4271 25.8844L82.3284 26.9829C80.733 28.5785 78.7195 29.6534 76.5059 30.0916L72.4934 30.8856L60.2619 18.6542ZM28.8938 34.0287L48.2256 14.6964C48.7159 14.2065 49.5128 14.2065 50.003 14.6964L76.4514 41.1444C76.9413 41.6343 76.9413 42.4316 76.4514 42.9215L57.1193 62.2535C56.6294 62.7436 55.8323 62.7434 55.3422 62.2535L28.8938 35.8056C28.4037 35.3157 28.4037 34.5186 28.8938 34.0287V34.0287ZM31.6294 44.8428L43.6973 56.9107L46.3257 59.5391L18.3962 82.3907L8.94155 72.9358L31.6294 44.8428Z" fill="url(#paint1_linear)"/>
<path d="M67.349 110.926C66.8892 109.805 65.5576 109.256 64.4392 109.721C63.3186 110.188 62.7701 111.505 63.234 112.629C63.6969 113.749 65.0238 114.3 66.1438 113.834C67.2624 113.368 67.8164 112.049 67.349 110.926Z" fill="url(#paint2_linear)"/>
<defs>
<linearGradient id="paint0_linear" x1="52.6134" y1="25.9458" x2="52.6134" y2="51.5251" gradientUnits="userSpaceOnUse">
<stop stop-color="#1CF0FE"/>
<stop offset="0.494792" stop-color="#1EF3FE"/>
<stop offset="0.59375" stop-color="#3DE9FB"/>
<stop offset="0.59385" stop-color="#1ABBF3"/>
<stop offset="1" stop-color="#25E3FC"/>
</linearGradient>
<linearGradient id="paint1_linear" x1="46" y1="-0.000488281" x2="46" y2="113.931" gradientUnits="userSpaceOnUse">
<stop stop-color="#1CF0FE"/>
<stop offset="0.494792" stop-color="#1EF3FE"/>
<stop offset="0.59375" stop-color="#3DE9FB"/>
<stop offset="0.59385" stop-color="#1ABBF3"/>
<stop offset="1" stop-color="#25E3FC"/>
</linearGradient>
<linearGradient id="paint2_linear" x1="65.2921" y1="109.555" x2="65.2921" y2="114" gradientUnits="userSpaceOnUse">
<stop stop-color="#1CF0FE"/>
<stop offset="0.494792" stop-color="#1EF3FE"/>
<stop offset="0.59375" stop-color="#3DE9FB"/>
<stop offset="0.59385" stop-color="#1ABBF3"/>
<stop offset="1" stop-color="#25E3FC"/>
</linearGradient>
</defs>
</svg>
