<svg width="114" height="114" viewBox="0 0 114 114" fill="none" xmlns="http://www.w3.org/2000/svg">
<path d="M70.8062 47.1675C67.0624 47.1675 63.4262 47.8936 59.9991 49.325C58.8644 49.7991 58.3289 51.1032 58.8028 52.2378C59.2768 53.3727 60.5809 53.9075 61.7155 53.4341C64.5963 52.2307 67.6547 51.6206 70.8062 51.6206C83.8202 51.6206 94.4077 62.2084 94.4077 75.2222C94.4077 88.236 83.8202 98.8237 70.8062 98.8237C57.7921 98.8237 47.2046 88.236 47.2046 75.2222C47.2046 72.0756 47.8129 69.0212 49.0128 66.1445C49.4862 65.0094 48.9498 63.7057 47.8149 63.2323C46.6807 62.7597 45.3761 63.2954 44.9028 64.4302C43.4753 67.8531 42.7515 71.484 42.7515 75.2222C42.7515 90.6916 55.3367 103.277 70.8062 103.277C86.2757 103.277 98.8609 90.6916 98.8609 75.2222C98.8609 59.7527 86.2757 47.1675 70.8062 47.1675Z" fill="url(#paint0_linear)"/>
<path d="M70.8062 93.48C80.8736 93.48 89.064 85.2896 89.064 75.2222C89.064 65.1548 80.8736 56.9644 70.8062 56.9644C60.7388 56.9644 52.5483 65.1548 52.5483 75.2222C52.5483 85.2896 60.739 93.48 70.8062 93.48ZM70.8062 61.4175C78.4181 61.4175 84.6109 67.6104 84.6109 75.2222C84.6109 82.8339 78.4181 89.0268 70.8062 89.0268C63.1942 89.0268 57.0015 82.8341 57.0015 75.2222C57.0015 67.6102 63.1942 61.4175 70.8062 61.4175Z" fill="url(#paint1_linear)"/>
<path d="M102.708 36.48H95.9346L88.1605 23.3239C87.76 22.6459 87.031 22.23 86.2437 22.23H55.3686C54.5811 22.23 53.8523 22.6459 53.4517 23.3239L45.6777 36.48H32.9531V33.8081C32.9531 29.3882 29.3574 25.7925 24.9375 25.7925C20.5176 25.7925 16.9219 29.3882 16.9219 33.8081V36.48H11.2922C5.06565 36.48 0 41.5456 0 47.7724V102.672C0 108.899 5.06565 113.964 11.2922 113.964H102.708C108.934 113.964 114 108.899 114 102.672V47.7724C114 41.5456 108.934 36.48 102.708 36.48ZM56.6391 26.6831H84.973L90.762 36.48H50.85L56.6391 26.6831ZM21.375 33.8081C21.375 31.8438 22.9732 30.2456 24.9375 30.2456C26.9018 30.2456 28.5 31.8438 28.5 33.8081V36.48H21.375V33.8081ZM109.547 102.672C109.547 106.443 106.479 109.511 102.708 109.511H11.2922C7.52111 109.511 4.45312 106.443 4.45312 102.672V47.7724C4.45312 44.0011 7.52111 40.9331 11.2922 40.9331H102.708C106.479 40.9331 109.547 44.0011 109.547 47.7724V102.672H109.547Z" fill="url(#paint2_linear)"/>
<path d="M70.8062 70.8804C73.2004 70.8804 75.1479 72.8282 75.1479 75.2222C75.1479 76.4519 76.1448 77.4487 77.3745 77.4487C78.6042 77.4487 79.6011 76.4519 79.6011 75.2222C79.6011 70.3727 75.6556 66.4272 70.8062 66.4272C69.5764 66.4272 68.5796 67.4243 68.5796 68.6538C68.5796 69.8833 69.5764 70.8804 70.8062 70.8804Z" fill="url(#paint3_linear)"/>
<path d="M70.8062 16.3721C72.0359 16.3721 73.0327 15.3751 73.0327 14.1456V2.26172C73.0327 1.03221 72.0359 0.0351562 70.8062 0.0351562C69.5764 0.0351562 68.5796 1.03199 68.5796 2.26172V14.1456C68.5796 15.3753 69.5764 16.3721 70.8062 16.3721Z" fill="url(#paint4_linear)"/>
<path d="M81.4013 16.3719C81.9711 16.3719 82.5411 16.1543 82.9757 15.7197L91.1452 7.55023C92.0147 6.68076 92.0147 5.2709 91.145 4.40121C90.2755 3.53196 88.8657 3.53196 87.9962 4.40121L79.8269 12.5709C78.9574 13.4404 78.9574 14.8502 79.8269 15.7199C80.2618 16.1546 80.8315 16.3719 81.4013 16.3719V16.3719Z" fill="url(#paint5_linear)"/>
<path d="M58.6364 15.7201C59.0713 16.1547 59.641 16.3723 60.2108 16.3723C60.7806 16.3723 61.3506 16.1547 61.7852 15.7201C62.6547 14.8506 62.6549 13.4408 61.7855 12.5711L53.616 4.40161C52.7465 3.53258 51.3366 3.53236 50.4672 4.40161C49.5977 5.27108 49.5975 6.68094 50.4669 7.55064L58.6364 15.7201Z" fill="url(#paint6_linear)"/>
<path d="M30.7266 54.7378H19.1484C17.9187 54.7378 16.9219 55.7348 16.9219 56.9644C16.9219 58.1941 17.9187 59.1909 19.1484 59.1909H30.7266C31.9563 59.1909 32.9531 58.1941 32.9531 56.9644C32.9531 55.7346 31.9563 54.7378 30.7266 54.7378Z" fill="url(#paint7_linear)"/>
<path d="M52.5381 59.1907C53.1237 59.1907 53.6981 58.9524 54.1123 58.5383C54.5264 58.1242 54.7646 57.5517 54.7646 56.9641C54.7646 56.3785 54.5264 55.8041 54.1123 55.3899C53.6981 54.976 53.1237 54.7375 52.5381 54.7375C51.9525 54.7375 51.378 54.9758 50.9639 55.3899C50.5475 55.8041 50.3115 56.3787 50.3115 56.9641C50.3115 57.5497 50.5475 58.1242 50.9639 58.5383C51.378 58.9524 51.9503 59.1907 52.5381 59.1907Z" fill="url(#paint8_linear)"/>
<defs>
<linearGradient id="paint0_linear" x1="70.8062" y1="47.1675" x2="70.8062" y2="103.277" gradientUnits="userSpaceOnUse">
<stop stop-color="#1CF0FE"/>
<stop offset="0.494792" stop-color="#1EF3FE"/>
<stop offset="0.59375" stop-color="#3DE9FB"/>
<stop offset="0.59385" stop-color="#1ABBF3"/>
<stop offset="1" stop-color="#25E3FC"/>
</linearGradient>
<linearGradient id="paint1_linear" x1="70.8062" y1="56.9644" x2="70.8062" y2="93.48" gradientUnits="userSpaceOnUse">
<stop stop-color="#1CF0FE"/>
<stop offset="0.494792" stop-color="#1EF3FE"/>
<stop offset="0.59375" stop-color="#3DE9FB"/>
<stop offset="0.59385" stop-color="#1ABBF3"/>
<stop offset="1" stop-color="#25E3FC"/>
</linearGradient>
<linearGradient id="paint2_linear" x1="56.9999" y1="22.23" x2="56.9999" y2="113.964" gradientUnits="userSpaceOnUse">
<stop stop-color="#1CF0FE"/>
<stop offset="0.494792" stop-color="#1EF3FE"/>
<stop offset="0.59375" stop-color="#3DE9FB"/>
<stop offset="0.59385" stop-color="#1ABBF3"/>
<stop offset="1" stop-color="#25E3FC"/>
</linearGradient>
<linearGradient id="paint3_linear" x1="74.0903" y1="66.4272" x2="74.0903" y2="77.4487" gradientUnits="userSpaceOnUse">
<stop stop-color="#1CF0FE"/>
<stop offset="0.494792" stop-color="#1EF3FE"/>
<stop offset="0.59375" stop-color="#3DE9FB"/>
<stop offset="0.59385" stop-color="#1ABBF3"/>
<stop offset="1" stop-color="#25E3FC"/>
</linearGradient>
<linearGradient id="paint4_linear" x1="70.8062" y1="0.0351562" x2="70.8062" y2="16.3721" gradientUnits="userSpaceOnUse">
<stop stop-color="#1CF0FE"/>
<stop offset="0.494792" stop-color="#1EF3FE"/>
<stop offset="0.59375" stop-color="#3DE9FB"/>
<stop offset="0.59385" stop-color="#1ABBF3"/>
<stop offset="1" stop-color="#25E3FC"/>
</linearGradient>
<linearGradient id="paint5_linear" x1="85.486" y1="3.74927" x2="85.486" y2="16.3719" gradientUnits="userSpaceOnUse">
<stop stop-color="#1CF0FE"/>
<stop offset="0.494792" stop-color="#1EF3FE"/>
<stop offset="0.59375" stop-color="#3DE9FB"/>
<stop offset="0.59385" stop-color="#1ABBF3"/>
<stop offset="1" stop-color="#25E3FC"/>
</linearGradient>
<linearGradient id="paint6_linear" x1="56.1262" y1="3.74976" x2="56.1262" y2="16.3723" gradientUnits="userSpaceOnUse">
<stop stop-color="#1CF0FE"/>
<stop offset="0.494792" stop-color="#1EF3FE"/>
<stop offset="0.59375" stop-color="#3DE9FB"/>
<stop offset="0.59385" stop-color="#1ABBF3"/>
<stop offset="1" stop-color="#25E3FC"/>
</linearGradient>
<linearGradient id="paint7_linear" x1="24.9375" y1="54.7378" x2="24.9375" y2="59.1909" gradientUnits="userSpaceOnUse">
<stop stop-color="#1CF0FE"/>
<stop offset="0.494792" stop-color="#1EF3FE"/>
<stop offset="0.59375" stop-color="#3DE9FB"/>
<stop offset="0.59385" stop-color="#1ABBF3"/>
<stop offset="1" stop-color="#25E3FC"/>
</linearGradient>
<linearGradient id="paint8_linear" x1="52.5381" y1="54.7375" x2="52.5381" y2="59.1907" gradientUnits="userSpaceOnUse">
<stop stop-color="#1CF0FE"/>
<stop offset="0.494792" stop-color="#1EF3FE"/>
<stop offset="0.59375" stop-color="#3DE9FB"/>
<stop offset="0.59385" stop-color="#1ABBF3"/>
<stop offset="1" stop-color="#25E3FC"/>
</linearGradient>
</defs>
</svg>
