<svg width="114" height="114" viewBox="0 0 114 114" fill="none" xmlns="http://www.w3.org/2000/svg">
<path d="M87.2812 65.0156H70.3594V55.4414C70.3594 53.484 70.3594 50.209 68.6574 47.3006C66.5439 43.6901 62.6218 41.8594 57 41.8594C56.2914 41.8594 55.6118 42.1409 55.1107 42.642C54.6096 43.143 54.3281 43.8226 54.3281 44.5312V58.2469L49.5448 66.0198L43.6406 69.8764V67.6875C43.6406 66.9789 43.3591 66.2993 42.858 65.7982C42.357 65.2971 41.6774 65.0156 40.9687 65.0156H23.1562C22.4476 65.0156 21.768 65.2971 21.2669 65.7982C20.7659 66.2993 20.4844 66.9789 20.4844 67.6875V110.438C20.4844 111.146 20.7659 111.826 21.2669 112.327C21.768 112.828 22.4476 113.109 23.1562 113.109H40.9687C41.4276 113.109 41.8786 112.991 42.2782 112.765C42.6779 112.54 43.0126 112.215 43.2501 111.823C44.7247 112.667 46.3946 113.111 48.0937 113.109H83.7187C85.1624 113.11 86.5795 112.721 87.8201 111.983C89.0608 111.245 90.0789 110.185 90.7667 108.916C91.4546 107.647 91.7866 106.215 91.7277 104.773C91.6688 103.33 91.2211 101.931 90.4321 100.722C90.6907 100.52 90.9371 100.303 91.1699 100.072C92.4696 98.7727 93.2827 97.066 93.4727 95.2382C93.6627 93.4105 93.218 91.573 92.2133 90.0344C92.472 89.8326 92.7184 89.6155 92.9512 89.3842C94.3996 87.9362 95.2379 85.9882 95.2939 83.9409C95.3498 81.8937 94.619 79.9028 93.2518 78.3779C94.284 77.2249 94.9605 75.7977 95.1994 74.2687C95.4383 72.7397 95.2295 71.1742 94.5982 69.7613C93.9668 68.3483 92.94 67.1484 91.6416 66.3063C90.3432 65.4641 88.8288 65.0159 87.2812 65.0156V65.0156ZM38.2969 107.766H25.8281V70.3594H38.2969V107.766ZM85.6113 106.981C85.3633 107.23 85.0684 107.428 84.7435 107.563C84.4187 107.697 84.0704 107.766 83.7187 107.766H48.0937C46.9131 107.764 45.7812 107.295 44.9464 106.46C44.1116 105.625 43.642 104.493 43.6406 103.312V76.2598L53.34 69.9256C53.6455 69.7238 53.9069 69.4621 54.1083 69.1563C54.3096 68.8505 54.4469 68.507 54.5116 68.1466L59.2764 60.4053C59.5354 59.9838 59.6723 59.4986 59.6719 59.0039V47.4035C64.5656 48.236 65.0156 51.5487 65.0156 55.4414V67.6875C65.0156 68.3961 65.2971 69.0757 65.7982 69.5768C66.2993 70.0779 66.9789 70.3594 67.6875 70.3594H87.2812C87.9899 70.3594 88.6695 70.6409 89.1705 71.1419C89.6716 71.643 89.9531 72.3226 89.9531 73.0312C89.9531 73.7399 89.6716 74.4195 89.1705 74.9206C88.6695 75.4216 87.9899 75.7031 87.2812 75.7031H81.9375C81.2289 75.7031 80.5493 75.9846 80.0482 76.4857C79.5471 76.9868 79.2656 77.6664 79.2656 78.375C79.2656 79.0836 79.5471 79.7632 80.0482 80.2643C80.5493 80.7654 81.2289 81.0469 81.9375 81.0469H87.2812C87.9899 81.0469 88.6695 81.3284 89.1705 81.8294C89.6716 82.3305 89.9531 83.0101 89.9531 83.7188C89.9531 84.4274 89.6716 85.107 89.1705 85.6081C88.6695 86.1091 87.9899 86.3906 87.2812 86.3906H81.9375C81.2289 86.3906 80.5493 86.6721 80.0482 87.1732C79.5471 87.6743 79.2656 88.3539 79.2656 89.0625C79.2656 89.7711 79.5471 90.4507 80.0482 90.9518C80.5493 91.4529 81.2289 91.7344 81.9375 91.7344H85.5C86.2086 91.7344 86.8882 92.0159 87.3893 92.5169C87.8904 93.018 88.1719 93.6976 88.1719 94.4062C88.1719 95.1149 87.8904 95.7945 87.3893 96.2956C86.8882 96.7966 86.2086 97.0781 85.5 97.0781H81.9375C81.2289 97.0781 80.5493 97.3596 80.0482 97.8607C79.5471 98.3618 79.2656 99.0414 79.2656 99.75C79.2656 100.459 79.5471 101.138 80.0482 101.639C80.5493 102.14 81.2289 102.422 81.9375 102.422H83.7187C84.247 102.422 84.7635 102.578 85.2029 102.871C85.6423 103.165 85.9849 103.581 86.1874 104.069C86.39 104.557 86.4433 105.094 86.3408 105.612C86.2383 106.131 85.9844 106.607 85.6113 106.981Z" fill="url(#paint0_linear)"/>
<path d="M32.0625 106.207C33.5381 106.207 34.7344 105.011 34.7344 103.535C34.7344 102.06 33.5381 100.863 32.0625 100.863C30.5869 100.863 29.3906 102.06 29.3906 103.535C29.3906 105.011 30.5869 106.207 32.0625 106.207Z" fill="url(#paint1_linear)"/>
<path d="M46.2403 23.6953L44.6149 33.1696C44.5307 33.6609 44.5856 34.1661 44.7735 34.6279C44.9613 35.0897 45.2747 35.4897 45.678 35.7827C46.0814 36.0757 46.5587 36.2501 47.0559 36.286C47.5532 36.3219 48.0505 36.218 48.4918 35.9859L57.0004 31.513L65.5085 35.9859C67.3726 37.0473 69.8185 35.2734 69.3854 33.1696L67.76 23.6953L74.6437 16.9858C75.0007 16.6378 75.2532 16.1969 75.3726 15.7129C75.4921 15.2289 75.4738 14.7211 75.3198 14.2469C75.1657 13.7728 74.8821 13.3512 74.5009 13.0299C74.1198 12.7085 73.6564 12.5002 73.163 12.4285L63.6505 11.0462L59.3964 2.42697C59.1758 1.97988 58.8344 1.60344 58.411 1.34022C57.9876 1.077 57.499 0.9375 57.0004 0.9375C56.5018 0.9375 56.0132 1.077 55.5898 1.34022C55.1664 1.60344 54.825 1.97988 54.6044 2.42697L50.3503 11.0462L40.8378 12.4285C40.3444 12.5002 39.881 12.7085 39.4999 13.0299C39.1187 13.3512 38.8351 13.7728 38.681 14.2469C38.527 14.7211 38.5087 15.2289 38.6282 15.7129C38.7476 16.1969 39.0001 16.6378 39.3571 16.9858L46.2403 23.6953ZM52.5088 16.1324C52.9374 16.0701 53.3445 15.9045 53.695 15.6499C54.0454 15.3953 54.3287 15.0593 54.5205 14.6708L57.0004 9.64593L59.4803 14.6708C59.6721 15.0593 59.9554 15.3953 60.3058 15.6499C60.6563 15.9045 61.0634 16.0701 61.492 16.1324L67.0362 16.9381L63.0246 20.8493C62.7144 21.1517 62.4824 21.5249 62.3485 21.9369C62.2147 22.3489 62.183 22.7872 62.2562 23.2142L63.2034 28.736L58.2437 26.129C57.8603 25.9274 57.4336 25.822 57.0004 25.822C56.5672 25.822 56.1405 25.9274 55.7571 26.129L50.7974 28.736L51.7446 23.2142C51.8178 22.7872 51.7861 22.3489 51.6523 21.9369C51.5184 21.5249 51.2864 21.1517 50.9762 20.8493L46.9637 16.9381L52.5088 16.1324Z" fill="url(#paint2_linear)"/>
<path d="M112.004 40.6108L104.313 34.844L104.704 25.2393C104.724 24.741 104.605 24.247 104.359 23.8132C104.113 23.3793 103.751 23.0229 103.313 22.7843C102.875 22.5456 102.379 22.4343 101.881 22.4629C101.384 22.4915 100.904 22.6588 100.496 22.9459L92.6357 28.4778L83.6219 25.138C83.1544 24.9648 82.6478 24.9259 82.1594 25.0256C81.6709 25.1253 81.2201 25.3597 80.8579 25.7022C80.4957 26.0448 80.2366 26.4818 80.1098 26.9639C79.983 27.446 79.9936 27.954 80.1404 28.4304L82.9724 37.6163L77.011 45.157C76.7018 45.5481 76.5082 46.0179 76.452 46.5133C76.3959 47.0087 76.4795 47.5099 76.6934 47.9602C76.9072 48.4106 77.2428 48.7921 77.6622 49.0617C78.0816 49.3313 78.5681 49.4781 79.0666 49.4857L88.6777 49.6306L94.0072 57.6307C95.1459 59.4593 98.1299 59.0648 98.7592 57.0132L101.867 47.9171L111.122 45.3207C111.602 45.186 112.035 44.9197 112.372 44.5519C112.708 44.1841 112.935 43.7295 113.027 43.2395C113.119 42.7495 113.071 42.2436 112.891 41.779C112.71 41.3144 112.402 40.9097 112.004 40.6106V40.6108ZM99.0713 43.1509C98.6542 43.2679 98.2719 43.4846 97.9571 43.7822C97.6424 44.0799 97.4048 44.4496 97.2647 44.8595L95.4527 50.1625L92.3462 45.4992C92.1061 45.1387 91.7819 44.8419 91.4016 44.6345C91.0213 44.4271 90.5962 44.3153 90.1631 44.3087L84.5604 44.2241L88.0356 39.8286C88.3042 39.4888 88.4862 39.0887 88.5658 38.6629C88.6455 38.2371 88.6204 37.7983 88.4927 37.3843L86.8419 32.0299L92.0966 33.9768C92.5029 34.1273 92.9396 34.1767 93.3693 34.1209C93.7989 34.065 94.2085 33.9055 94.5628 33.6561L99.145 30.4314L98.9173 36.0301C98.8997 36.4629 98.9876 36.8935 99.1734 37.2848C99.3592 37.6761 99.6374 38.0164 99.984 38.2763L104.467 41.6384L99.0713 43.1509Z" fill="url(#paint3_linear)"/>
<path d="M34.9337 49.4859C37.0814 49.5233 38.3755 46.7978 36.9892 45.1572L31.0278 37.6165L33.8598 28.4306C34.0067 27.9542 34.0173 27.4462 33.8906 26.964C33.7638 26.4819 33.5046 26.0448 33.1424 25.7023C32.7802 25.3597 32.3294 25.1253 31.8409 25.0256C31.3525 24.9259 30.8458 24.9648 30.3783 25.138L21.3646 28.4778L13.5048 22.9459C13.0971 22.6588 12.6172 22.4915 12.1193 22.4629C11.6215 22.4343 11.1255 22.5456 10.6877 22.7843C10.2498 23.0229 9.88746 23.3793 9.64162 23.8132C9.39578 24.247 9.27626 24.741 9.29659 25.2393L9.68735 34.844L1.99702 40.6108C1.59819 40.9099 1.291 41.3146 1.11018 41.7792C0.929352 42.2438 0.882113 42.7497 0.973799 43.2397C1.06548 43.7298 1.29244 44.1844 1.629 44.5521C1.96556 44.9199 2.3983 45.1862 2.8783 45.3209L12.1335 47.9173L15.2411 57.0134C15.8703 59.0654 18.8546 59.4591 19.993 57.6309L25.3225 49.6308L34.9337 49.4859ZM21.6538 45.5003L18.5475 50.1625L16.7358 44.8604C16.5957 44.4505 16.3581 44.0808 16.0433 43.7831C15.7286 43.4855 15.3462 43.2688 14.9291 43.1518L9.53394 41.6377L14.0169 38.2756C14.3635 38.0157 14.6417 37.6755 14.8275 37.2842C15.0133 36.8929 15.1012 36.4623 15.0836 36.0294L14.8559 30.4307L19.4381 33.6564C19.7924 33.9057 20.202 34.0652 20.6316 34.1211C21.0613 34.1769 21.498 34.1275 21.9043 33.977L27.159 32.0301L25.5075 37.3841C25.3799 37.798 25.3548 38.2368 25.4344 38.6627C25.514 39.0885 25.696 39.4885 25.9646 39.8284L29.4399 44.2239L23.8372 44.3085C23.4039 44.315 22.9788 44.4269 22.5985 44.6343C22.2181 44.8418 21.8939 45.1386 21.6538 45.4992V45.5003Z" fill="url(#paint4_linear)"/>
<defs>
<linearGradient id="paint0_linear" x1="57.8906" y1="41.8594" x2="57.8906" y2="113.109" gradientUnits="userSpaceOnUse">
<stop stop-color="#1CF0FE"/>
<stop offset="0.494792" stop-color="#1EF3FE"/>
<stop offset="0.59375" stop-color="#3DE9FB"/>
<stop offset="0.59385" stop-color="#1ABBF3"/>
<stop offset="1" stop-color="#25E3FC"/>
</linearGradient>
<linearGradient id="paint1_linear" x1="32.0625" y1="100.863" x2="32.0625" y2="106.207" gradientUnits="userSpaceOnUse">
<stop stop-color="#1CF0FE"/>
<stop offset="0.494792" stop-color="#1EF3FE"/>
<stop offset="0.59375" stop-color="#3DE9FB"/>
<stop offset="0.59385" stop-color="#1ABBF3"/>
<stop offset="1" stop-color="#25E3FC"/>
</linearGradient>
<linearGradient id="paint2_linear" x1="57.0004" y1="0.9375" x2="57.0004" y2="36.3028" gradientUnits="userSpaceOnUse">
<stop stop-color="#1CF0FE"/>
<stop offset="0.494792" stop-color="#1EF3FE"/>
<stop offset="0.59375" stop-color="#3DE9FB"/>
<stop offset="0.59385" stop-color="#1ABBF3"/>
<stop offset="1" stop-color="#25E3FC"/>
</linearGradient>
<linearGradient id="paint3_linear" x1="94.7538" y1="22.4585" x2="94.7538" y2="58.8016" gradientUnits="userSpaceOnUse">
<stop stop-color="#1CF0FE"/>
<stop offset="0.494792" stop-color="#1EF3FE"/>
<stop offset="0.59375" stop-color="#3DE9FB"/>
<stop offset="0.59385" stop-color="#1ABBF3"/>
<stop offset="1" stop-color="#25E3FC"/>
</linearGradient>
<linearGradient id="paint4_linear" x1="19.2459" y1="22.4585" x2="19.2459" y2="58.8018" gradientUnits="userSpaceOnUse">
<stop stop-color="#1CF0FE"/>
<stop offset="0.494792" stop-color="#1EF3FE"/>
<stop offset="0.59375" stop-color="#3DE9FB"/>
<stop offset="0.59385" stop-color="#1ABBF3"/>
<stop offset="1" stop-color="#25E3FC"/>
</linearGradient>
</defs>
</svg>
